<svg width="232" height="206" viewBox="0 0 232 206" fill="none" xmlns="http://www.w3.org/2000/svg">
<path opacity="0.18" d="M22.7472 119.924C29.1707 109.119 35.5528 98.3028 38.5043 86.1406C41.9527 71.9159 39.9653 56.2864 45.4306 42.5536C49.9554 31.2035 56.6747 17.8322 67.6586 11.5378C74.5375 7.57858 82.7059 6.61248 90.6259 6.20352C109.139 5.30855 128.191 7.24667 145.433 14.3887C162.799 21.5899 171.618 31.9977 176.852 50.2291C180.324 62.3379 182.572 75.1935 189.794 85.5064C195.07 93.0337 202.611 98.6287 208.834 105.391C230.979 129.461 233.333 176.45 199.518 191.576C186.026 197.621 170.754 197.864 155.979 198.006L78.7725 198.747C68.806 198.842 57.5205 201.225 47.8616 199.162C37.6474 196.961 28.0663 192.462 19.843 186.004C16.2409 183.195 12.8872 179.947 10.5567 175.999C2.90882 163.043 8.03107 146.365 15.1466 133.1C17.5362 128.667 20.1387 124.287 22.7472 119.924Z" fill="#CBDCD9"/>
<path opacity="0.47" d="M113.552 195.541C158.001 195.541 194.035 187.094 194.035 176.675C194.035 166.256 158.001 157.81 113.552 157.81C69.1022 157.81 33.0686 166.256 33.0686 176.675C33.0686 187.094 69.1022 195.541 113.552 195.541Z" fill="white"/>
<path d="M152.276 186.455H131.125L111.363 166.653H76.9684L81.724 175.146H57.9581V174.553H80.7125L75.9629 166.06H111.606L131.373 185.862H150.744L140.287 176.379H159.049L153.016 170.327L153.43 169.913L160.48 176.972H141.819L152.276 186.455Z" fill="#5DF8BE"/>
<path d="M126.21 191.718L112.836 178.317H123.719V178.91H114.262L126.63 191.297L126.21 191.718Z" fill="#5DF8BE"/>
<path d="M104.638 187.794L101.468 182.916H79.5532L74.7148 175.004L75.2176 174.689L79.8844 182.323H101.787L105.135 187.468L104.638 187.794Z" fill="#5DF8BE"/>
<path d="M62.01 182.916H52.2919V182.324H61.0872L56.5269 172.337L57.0651 172.094L62.01 182.916Z" fill="#5DF8BE"/>
<path d="M153.311 170.446C152.229 170.446 150.389 170.221 150.389 169.373C150.389 168.526 152.229 168.294 153.311 168.294C154.394 168.294 156.233 168.52 156.233 169.373C156.233 170.227 154.4 170.446 153.311 170.446ZM153.311 168.887C151.927 168.887 151.058 169.213 150.945 169.391C151.028 169.527 151.898 169.853 153.311 169.853C154.725 169.853 155.512 169.551 155.636 169.373C155.512 169.195 154.648 168.887 153.311 168.887Z" fill="#5DF8BE"/>
<path d="M126.635 193.365C125.553 193.365 123.713 193.14 123.713 192.287C123.713 191.433 125.553 191.208 126.635 191.208C127.718 191.208 129.557 191.439 129.557 192.287C129.557 193.134 127.724 193.365 126.635 193.365ZM126.635 191.801C125.251 191.801 124.382 192.127 124.305 192.305C124.382 192.447 125.251 192.773 126.635 192.773C128.019 192.773 128.836 192.465 128.96 192.287C128.836 192.085 127.978 191.801 126.635 191.801Z" fill="#5DF8BE"/>
<path d="M105.419 189.489C104.331 189.489 102.497 189.258 102.497 188.411C102.497 187.563 104.331 187.332 105.419 187.332C106.507 187.332 108.341 187.563 108.341 188.411C108.341 189.258 106.501 189.489 105.419 189.489ZM105.419 187.925C104.035 187.925 103.165 188.251 103.053 188.429C103.136 188.571 104.005 188.897 105.419 188.897C106.833 188.897 107.619 188.589 107.743 188.411C107.619 188.233 106.738 187.937 105.419 187.937V187.925Z" fill="#5DF8BE"/>
<path d="M50.1918 183.693C49.1035 183.693 47.2699 183.467 47.2699 182.614C47.2699 181.76 49.1035 181.541 50.1918 181.541C51.2802 181.541 53.1138 181.766 53.1138 182.614C53.1138 183.461 51.2742 183.693 50.1918 183.693ZM50.1918 182.134C48.8078 182.134 47.9383 182.46 47.8259 182.632C47.9087 182.774 48.7782 183.1 50.1918 183.1C51.6055 183.1 52.3921 182.798 52.5164 182.614C52.3921 182.436 51.5345 182.134 50.1918 182.134Z" fill="#5DF8BE"/>
<path d="M56.9173 172.526C55.8349 172.526 53.9954 172.295 53.9954 171.447C53.9954 170.6 55.8349 170.369 56.9173 170.369C57.9997 170.369 59.8392 170.594 59.8392 171.447C59.8392 172.301 58.0056 172.526 56.9173 172.526ZM56.9173 170.961C55.5332 170.961 54.6637 171.287 54.5868 171.465C54.6637 171.601 55.5332 171.933 56.9173 171.933C58.3014 171.933 59.1176 171.625 59.2418 171.447C59.1176 171.246 58.2363 170.938 56.9173 170.938V170.961Z" fill="#5DF8BE"/>
<path opacity="0.1" d="M84.3265 175.14C83.81 175.349 83.3888 175.741 83.1435 176.242C82.552 177.807 85.1072 179.152 84.7523 180.788C84.3206 182.732 80.9195 181.879 79.7425 183.485C78.9854 184.51 79.6301 186.075 80.7184 186.739C81.8067 187.403 83.1553 187.403 84.427 187.391C98.7961 187.225 113.157 186.739 127.511 185.933C136.726 185.417 146.172 184.718 154.559 180.859C155.259 180.627 155.851 180.149 156.227 179.514C156.352 179.136 156.388 178.735 156.332 178.341C156.277 177.948 156.132 177.572 155.908 177.244C153.773 173.433 148.644 172.811 144.285 172.639C145.001 170.683 143.694 168.454 141.86 167.435C140.027 166.415 137.879 166.32 135.797 166.249L129.403 166.006C126.777 165.906 123.956 165.864 121.785 167.334C120.011 168.519 118.976 170.54 117.343 171.904C113.534 175.075 107.879 173.919 103.082 172.757C99.8825 171.981 96.2508 171.305 93.0272 172.23C91.6431 172.627 90.6199 173.634 89.3186 174.079C87.6565 174.624 85.9531 174.304 84.3265 175.14Z" fill="#020202"/>
<path d="M97.0435 163.114C96.4165 164.489 95.7718 165.912 95.7836 167.423C95.8591 168.916 96.3851 170.35 97.2919 171.537C99.1812 174.19 102.021 176.007 105.218 176.61C105.634 176.729 106.078 176.695 106.472 176.515C106.739 176.334 106.945 176.075 107.063 175.774C107.779 174.21 107.412 172.366 106.868 170.73C106.324 169.095 105.59 167.471 105.614 165.746C105.655 162.51 110.092 156.103 104.668 154.734C100.143 153.56 98.398 160.18 97.0435 163.114Z" fill="#FFBBAB"/>
<path d="M126.517 158.112C126.073 159.552 125.63 161.075 125.837 162.545C126.112 164.015 126.826 165.367 127.883 166.421C130.107 168.797 133.161 170.22 136.407 170.393C136.836 170.454 137.274 170.362 137.643 170.132C137.886 169.916 138.057 169.63 138.134 169.314C138.637 167.666 138.027 165.894 137.27 164.347C136.513 162.8 135.573 161.283 135.366 159.57C134.975 156.357 138.524 149.417 132.964 148.783C128.321 148.226 127.469 155.018 126.517 158.112Z" fill="#FFBBAB"/>
<path d="M117.84 102.292C121.549 105.676 125.163 109.185 128.617 112.83C130.722 115.085 132.71 117.447 134.573 119.907C137.401 123.558 138.447 126.498 138.607 131.215C138.85 138.209 139.08 145.286 137.631 152.132C137.288 153.744 136.756 155.474 135.384 156.381C133.361 157.721 130.457 156.458 129.149 154.408C127.842 152.357 127.682 149.808 127.493 147.378C127.079 142.133 126.511 136.71 125.21 131.571C124.465 128.643 121.969 127.742 119.585 126.16C115.072 123.196 107.566 119.184 105.348 113.938C103.837 110.101 102.591 106.164 101.622 102.155L117.84 102.292Z" fill="url(#paint0_linear)"/>
<path d="M110.482 102.908C111.929 107.899 113.288 112.917 114.557 117.963C115.539 121.845 116.486 125.745 117.278 129.668C117.947 133.005 119.419 137.931 118.71 141.214C118.331 142.632 117.747 143.985 116.977 145.233L109.382 158.93C108.982 159.794 108.394 160.558 107.661 161.164C106.081 162.273 102.562 160.542 101.261 159.452C99.9595 158.361 99.5928 156.855 99.6756 155.196C100.096 146.934 104.307 143.241 104.952 134.991C104.952 134.991 89.0821 120.843 91.034 102.985C92.9859 85.1272 110.482 102.908 110.482 102.908Z" fill="url(#paint1_linear)"/>
<path d="M132.314 74.8557C132.213 76.5805 131.657 78.0859 130.161 78.5838C130.036 78.6298 129.907 78.6655 129.776 78.6905C127.026 79.2417 123.418 77.1435 120.904 75.3121C119.857 74.5531 118.854 73.7359 117.899 72.8642V54.4136L131.279 68.1404C131.279 68.1404 132.503 71.827 132.314 74.8557Z" fill="#282328"/>
<path d="M120.933 75.2526C120.298 78.6023 119.903 81.9933 119.75 85.3996C119.425 91.0599 118.638 96.6608 117.852 102.286C112.528 103.4 107.051 102.973 101.633 102.149C99.7405 101.859 97.8596 101.527 95.9905 101.189C95.3576 101.076 94.8075 100.762 94.1569 100.596C91.0457 99.8199 89.7917 84.5224 89.5078 79.7275C89.2357 75.1637 89.1431 70.598 89.2298 66.0302C89.2949 62.7171 89.5551 59.1372 91.7141 56.636C94.5887 53.305 100.143 51.1002 104.36 50.3238C105.721 50.0446 107.116 49.9667 108.5 50.0926C110.47 50.4077 112.372 51.055 114.125 52.007C116.219 53.0442 118.082 53.9214 119.112 55.9959C120.239 58.3929 121.026 60.9367 121.448 63.5528C122.116 67.4586 121.679 71.4119 120.933 75.2526Z" fill="#282328"/>
<path opacity="0.1" d="M101.622 102.155C99.7288 101.865 97.8478 101.533 95.9788 101.195C95.3459 101.083 94.7958 100.769 94.1452 100.603C91.034 99.8262 89.78 84.5287 89.4961 79.7337L96.9961 71.0981C96.9961 71.0981 94.9082 96.0092 101.622 102.155Z" fill="#020202"/>
<path d="M111.28 46.3883C110.774 46.9386 110.084 47.2843 109.34 47.3604C108.72 47.4285 108.094 47.4404 107.471 47.3959H107.122C107.035 47.3808 106.944 47.3976 106.868 47.4433C106.796 47.5179 106.755 47.6179 106.756 47.7219C106.62 48.9678 106.596 50.2235 106.685 51.4737C106.685 51.6989 106.72 51.9241 106.744 52.1494C106.79 52.3854 106.769 52.6297 106.685 52.8547C106.597 52.9834 106.485 53.0936 106.356 53.1791C106.226 53.2645 106.08 53.3234 105.928 53.3525C105.382 53.5371 104.811 53.635 104.236 53.643C103.006 53.643 101.87 53.0206 100.793 52.4279C100.877 50.2903 100.764 48.1496 100.456 46.0327C100.06 43.3182 99.3443 40.5503 99.6401 37.8061C99.7063 36.727 100.098 35.6935 100.764 34.8426C101.752 33.7343 103.343 33.3727 104.827 33.3786C106.794 33.3431 108.73 33.8738 110.405 34.9078C110.997 35.3286 111.091 35.862 111.233 36.5614C111.446 37.6401 111.618 38.7307 111.736 39.8213C111.874 41.0659 111.951 42.3165 111.967 43.573C111.978 44.5451 111.919 45.6297 111.28 46.3883Z" fill="#FFBBAB"/>
<path d="M109.104 35.53C107.702 35.7671 106.147 35.53 104.857 36.0634C103.012 36.8161 102.225 39.2166 102.84 41.1132C102.308 41.3088 102.213 40.3427 101.799 39.9278C101.385 39.5129 100.456 40.0582 100.391 40.7279C100.427 41.4017 100.63 42.0559 100.983 42.6305C101.486 43.8129 101.574 45.1316 101.231 46.3704C101.148 46.6608 100.936 47.0046 100.64 46.9276C100.344 46.8505 100.143 46.3349 99.9655 46.1393C99.6834 45.7973 99.3727 45.4801 99.0369 45.191C98.3862 44.5983 97.6706 44.1182 97.0081 43.561C95.8251 42.5712 94.7309 41.2317 94.8019 39.6907C94.8302 39.0545 95.0351 38.4387 95.3933 37.9126C95.696 37.4651 96.0864 37.0839 96.5408 36.7924C96.7301 36.6739 96.943 36.5435 96.9844 36.3301C96.9975 36.208 96.9834 36.0845 96.943 35.9686C96.5349 34.4039 97.4044 32.7265 98.6879 31.7545C100.041 30.8705 101.583 30.32 103.189 30.1483C104.218 29.9646 105.259 29.8164 106.294 29.6978C107.154 29.6556 107.998 29.4547 108.785 29.1052C108.581 28.5401 108.305 28.0041 107.962 27.5108C108.697 27.7415 109.396 28.0747 110.038 28.5006C110.003 28.142 109.909 27.7917 109.76 27.4634C110.89 27.8486 112.079 28.2813 112.824 29.2415C113.256 29.8421 113.498 30.5593 113.517 31.2994C113.536 32.0396 113.332 32.7683 112.931 33.3904C112.132 34.6528 110.872 35.1684 109.482 35.4944L109.104 35.53Z" fill="#FC682D"/>
<path d="M107.471 47.3962H107.122C107.035 47.381 106.944 47.3978 106.868 47.4436C106.796 47.5181 106.755 47.6181 106.756 47.7221C106.62 48.9681 106.596 50.2237 106.685 51.4739C106.685 51.4739 103.136 50.5612 103.23 46.1396C104.588 46.7061 106.002 47.1272 107.448 47.3962H107.471Z" fill="#E0A194"/>
<path d="M150.543 61.59C149.786 62.07 148.769 62.1827 148.278 62.9769C147.716 63.8718 148.278 65.0157 148.402 66.0648C148.533 67.2214 148.206 68.3834 147.491 69.301C147.275 69.5887 147.029 69.8529 146.758 70.0892C145.585 71.0448 144.129 71.5846 142.617 71.6243C142.617 71.6243 141.783 68.2697 141.807 67.9259C141.908 66.7405 142.718 65.6618 142.848 64.4349C142.901 63.1337 143.019 61.836 143.203 60.5468C143.47 59.3018 144.024 58.1366 144.82 57.1437C145.616 56.1507 146.632 55.3576 147.787 54.8273C148.077 54.6969 148.491 54.6198 148.651 54.8984C148.706 55.0168 148.72 55.1502 148.692 55.2777C148.515 56.6232 147.639 57.7611 146.793 58.8339C147.558 58.3959 148.377 58.0629 149.23 57.8441C149.609 57.7434 150.171 57.8026 150.177 58.1938C150.162 58.2866 150.129 58.3755 150.079 58.455C150.03 58.5345 149.964 58.603 149.887 58.6561L147.604 60.7068C148.53 60.4056 149.509 60.2986 150.478 60.3927C150.641 60.394 150.799 60.4481 150.928 60.5468C151.212 60.8491 150.904 61.3647 150.543 61.59Z" fill="#FFBBAB"/>
<path d="M150.543 59.7062C149.786 60.1863 148.769 60.2989 148.278 61.0931C147.716 61.9881 148.278 63.132 148.402 64.1811C148.533 65.3377 148.206 66.4996 147.491 67.4172C147.222 67.5803 146.937 67.7135 146.639 67.8143C146.433 67.9083 146.201 67.9271 145.983 67.8676C145.81 67.7724 145.675 67.6196 145.603 67.4355C145.531 67.2515 145.525 67.0479 145.586 66.86C145.723 66.4897 145.894 66.1326 146.095 65.7932C146.373 65.1854 146.409 64.4944 146.196 63.861C145.928 63.3738 145.761 62.8376 145.705 62.2844C145.761 61.9399 145.892 61.612 146.089 61.3242L146.781 60.1389C146.903 59.9612 146.984 59.7588 147.018 59.5462C147.034 59.4435 147.019 59.3384 146.973 59.245C146.928 59.1516 146.854 59.0746 146.764 59.0246C146.65 58.9976 146.532 58.9991 146.42 59.0291C146.307 59.0591 146.204 59.1166 146.119 59.1965C145.734 59.475 144.818 60.6545 144.936 59.558C145.078 58.8156 145.348 58.1036 145.734 57.4539C146.477 56.1262 147.347 54.8737 148.331 53.714C148.435 53.5854 148.549 53.4664 148.674 53.3584C148.497 54.7038 147.621 55.8418 146.775 56.9146C147.54 56.4765 148.359 56.1436 149.212 55.9248C149.591 55.824 150.153 55.8833 150.159 56.2745C150.144 56.3673 150.111 56.4562 150.062 56.5357C150.012 56.6152 149.946 56.6836 149.869 56.7368L147.586 58.7875C148.512 58.4862 149.491 58.3793 150.46 58.4734C150.623 58.4747 150.781 58.5287 150.91 58.6275C151.212 58.9653 150.904 59.481 150.543 59.7062Z" fill="#E0A194"/>
<path d="M58.4551 58.9535C59.2122 59.4336 60.2296 59.5759 60.7205 60.3404C61.312 61.2354 60.7205 62.3793 60.5963 63.4284C60.4654 64.585 60.7924 65.7469 61.5072 66.6645C61.7235 66.9523 61.9693 67.2165 62.2406 67.4528C63.4138 68.4084 64.8696 68.9481 66.381 68.9879C66.381 68.9879 67.215 65.6332 67.1913 65.2895C67.0908 64.1041 66.2804 63.0254 66.1503 61.7985C66.0977 60.4973 65.9792 59.1996 65.7954 57.9104C65.528 56.671 64.9768 55.5108 64.1854 54.5213C63.394 53.5318 62.384 52.7401 61.2351 52.2086C60.9453 52.0782 60.5312 52.0012 60.3715 52.2798C60.3164 52.3982 60.3018 52.5315 60.3301 52.6591C60.5076 54.0045 61.383 55.1425 62.2288 56.2153C61.4645 55.7772 60.6448 55.4443 59.7919 55.2255C59.4192 55.1247 58.8278 55.1721 58.8278 55.5751C58.842 55.668 58.8751 55.7569 58.9249 55.8364C58.9748 55.9159 59.0403 55.9843 59.1176 56.0375L61.4007 58.0882C60.4742 57.7869 59.4957 57.68 58.5261 57.7741C58.3636 57.7753 58.2058 57.8294 58.0766 57.9282C57.7867 58.2127 58.0943 58.7283 58.4551 58.9535Z" fill="#FFBBAB"/>
<path d="M58.4551 58.9537C59.2122 59.4338 60.2296 59.5761 60.7205 60.3407C61.312 61.2356 60.7205 62.3795 60.5963 63.4286C60.4654 64.5852 60.7924 65.7471 61.5072 66.6647C61.7758 66.8279 62.0614 66.961 62.3589 67.0618C62.5649 67.1558 62.7971 67.1747 63.0155 67.1152C63.1885 67.02 63.3228 66.8671 63.3952 66.6831C63.4675 66.4991 63.4734 66.2955 63.4118 66.1076C63.2748 65.7373 63.1045 65.3802 62.9031 65.0408C62.6253 64.433 62.5894 63.742 62.8025 63.1086C63.07 62.6213 63.2369 62.0852 63.2935 61.532C63.2374 61.1875 63.1061 60.8596 62.909 60.5718L62.217 59.3864C62.0954 59.2088 62.0146 59.0064 61.9804 58.7937C61.9639 58.6911 61.9795 58.5859 62.025 58.4925C62.0706 58.3992 62.1438 58.3222 62.2347 58.2721C62.348 58.2451 62.4662 58.2467 62.5787 58.2767C62.6912 58.3067 62.7945 58.3642 62.8794 58.444C63.2639 58.7226 64.1807 59.9021 64.0624 58.8056C63.92 58.0631 63.6498 57.3512 63.2639 56.7015C62.5209 55.3738 61.6513 54.1213 60.6673 52.9616C60.5638 52.833 60.4489 52.714 60.3242 52.606C60.5017 53.9514 61.377 55.0894 62.2229 56.1621C61.4586 55.7241 60.6389 55.3912 59.786 55.1723C59.4192 55.1249 58.8278 55.1723 58.8278 55.5754C58.842 55.6682 58.8751 55.7571 58.9249 55.8366C58.9748 55.9161 59.0403 55.9845 59.1176 56.0377L61.4007 58.0884C60.4742 57.7871 59.4957 57.6802 58.5261 57.7743C58.3636 57.7756 58.2058 57.8296 58.0766 57.9284C57.7867 58.2129 58.0943 58.7285 58.4551 58.9537Z" fill="#E0A194"/>
<path d="M143.469 70.0906C141.715 72.5868 139.541 74.7587 137.045 76.5095C135.243 77.7365 133.159 78.4831 130.989 78.6788C130.703 78.7041 130.416 78.6718 130.143 78.584C129.672 78.45 129.257 78.1673 128.96 77.7779C128.056 76.6977 127.514 75.3605 127.41 73.955C127.262 70.2803 131.237 68.1406 131.237 68.1406C131.237 68.1406 140.287 65.2483 141.363 65.7224C141.955 65.9773 142.511 67.2516 142.901 68.3599C143.262 69.2846 143.469 70.0906 143.469 70.0906Z" fill="#282328"/>
<path d="M100.964 66.6609C103.469 63.8597 103.234 59.5551 100.44 57.0464C97.6459 54.5376 93.3503 54.7747 90.8456 57.5759L78.5663 71.3087C76.0616 74.1099 76.2963 78.4145 79.0906 80.9232C81.8848 83.432 86.1805 83.1949 88.6852 80.3937L100.964 66.6609Z" fill="#282328"/>
<path d="M81.5645 71.3589L68.4276 63.1797L63.3645 69.7408C63.3645 69.7408 76.1228 84.3271 80.9966 83.5744C85.8705 82.8217 87.6035 81.3755 87.6035 81.3755C87.6035 81.3755 89.443 75.0218 81.5645 71.3589Z" fill="#282328"/>
<path opacity="0.1" d="M143.469 70.0905C141.715 72.5867 139.541 74.7587 137.046 76.5095C135.243 77.7364 133.159 78.483 130.989 78.6787C130.703 78.704 130.416 78.6717 130.143 78.5839C130.018 78.6299 129.889 78.6656 129.758 78.6906C127.008 79.2418 123.4 77.1436 120.886 75.3122V75.2529L121.738 69.7408C123.386 71.4467 125.302 72.8702 127.41 73.9549C128.898 74.7547 130.598 75.0696 132.272 74.8558C132.724 74.7835 133.164 74.6499 133.579 74.4587C136.939 72.8415 140.073 70.7912 142.901 68.3599C143.262 69.2845 143.469 70.0905 143.469 70.0905Z" fill="#020202"/>
<path d="M124.08 162.8C124.08 162.8 122.72 164.347 123.252 165.716C123.784 167.086 131.018 176.094 138.867 173.635C146.716 171.175 132.248 165.414 132.248 165.414L124.08 162.8Z" fill="#66EAF6"/>
<path d="M125.908 158.728C126.24 158.688 126.576 158.769 126.854 158.956C127.132 159.143 127.334 159.424 127.422 159.748C127.777 160.933 129.557 163.037 131.758 163.263C133.958 163.488 135.585 161.431 136.602 161.775C137.619 162.119 141.399 168.597 141.008 170.665C140.618 172.734 137.365 173.232 134.254 172.36C131.143 171.489 124.997 166.955 124.246 164.892C123.495 162.83 124.849 159.487 125.908 158.728Z" fill="#282328"/>
<path opacity="0.33" d="M111.215 29.4432C111.194 29.4994 111.162 29.5505 111.12 29.5934C111.078 29.6363 111.027 29.6699 110.972 29.6922C110.916 29.7145 110.856 29.725 110.796 29.7229C110.737 29.7209 110.678 29.7063 110.624 29.6803C110.417 29.5825 110.237 29.4336 110.103 29.2476C109.9 29.8196 109.878 30.4403 110.038 31.0257C110.193 31.6072 110.115 32.2264 109.819 32.7504C109.666 32.9579 109.453 33.1061 109.287 33.3017C109.193 33.3885 109.122 33.4972 109.079 33.6181C109.037 33.739 109.025 33.8685 109.044 33.9951C109.145 34.3981 109.666 34.5167 110.074 34.4515C110.415 34.3991 110.741 34.2787 111.035 34.0975C111.329 33.9163 111.583 33.6779 111.783 33.3965C112.189 32.7103 112.42 31.9349 112.457 31.1383C112.54 30.4449 112.67 29.8166 112.191 29.2713C112.061 29.1231 111.541 28.6431 111.334 28.7379C111.044 28.8505 111.28 29.1765 111.215 29.4432Z" fill="white"/>
<path opacity="0.33" d="M110.943 41.9315C110.908 41.973 110.866 42.0145 110.831 42.0619C110.77 42.1726 110.738 42.297 110.738 42.4234C110.738 42.5499 110.77 42.6743 110.831 42.785C110.951 43.0085 111.109 43.2092 111.298 43.3777C111.345 43.4192 111.393 43.4666 111.452 43.4607C111.511 43.4547 111.576 43.3777 111.606 43.3066C111.783 42.7049 111.826 42.0714 111.73 41.4514C111.647 40.5031 111.535 39.5785 111.393 38.6539C111.359 37.7935 111.158 36.948 110.801 36.1646C110.679 35.9737 110.493 35.8319 110.277 35.7637C110.061 35.6955 109.828 35.7052 109.618 35.7912C108.956 36.0757 109.388 36.8106 109.571 37.2907C109.743 37.8839 109.85 38.494 109.89 39.1103C109.93 39.7331 110.171 40.3262 110.577 40.7994C110.728 40.925 110.871 41.0617 111.002 41.2084C111.068 41.2835 111.112 41.3749 111.13 41.4731C111.147 41.5712 111.138 41.6722 111.103 41.7655C111.06 41.8296 111.006 41.8858 110.943 41.9315Z" fill="white"/>
<path opacity="0.33" d="M132.438 70.031C132.162 70.1046 131.877 70.1346 131.592 70.1199C131.227 70.055 130.877 69.9202 130.563 69.7228C129.805 69.3467 129.093 68.8853 128.439 68.3477C127.785 67.8064 127.329 67.0618 127.144 66.2318C128.777 66.6881 130.101 68.2114 131.787 68.1995C132.329 68.1665 132.864 68.0526 133.372 67.8617L135.863 67.0615C137.56 66.5222 139.329 65.971 141.085 66.2318C141.156 66.2357 141.224 66.2652 141.275 66.3147C141.295 66.3426 141.308 66.3747 141.314 66.4085C141.321 66.4424 141.319 66.4771 141.31 66.5103C141.198 67.1979 140.435 67.3164 139.902 67.512C139.074 67.8202 138.282 68.2292 137.454 68.5433C135.82 69.1599 134.143 69.6571 132.438 70.031Z" fill="#282328"/>
<path opacity="0.33" d="M113.575 60.1981C115.363 62.7162 116.601 65.5842 117.207 68.6144C117.592 70.5526 117.745 72.6211 118.857 74.2451C119.632 73.7709 119.762 72.7159 119.768 71.8091C119.7 68.7837 119.373 65.7697 118.792 62.8001C118.608 61.3651 118.262 59.9555 117.763 58.5979C117.134 57.11 116.147 55.8016 114.89 54.7899C113.632 53.7783 112.144 53.095 110.559 52.8013C110.424 52.7277 110.269 52.6977 110.117 52.7154C109.964 52.7331 109.821 52.7976 109.706 52.9001C109.592 53.0026 109.511 53.1381 109.477 53.2881C109.442 53.438 109.454 53.5951 109.512 53.7377C109.78 55.6233 110.74 57.3411 112.203 58.5564" fill="#282328"/>
<path d="M67.2149 11.9053V42.773C46.5544 39.359 33.0626 33.7225 33.0626 27.3628C33.0626 21.0032 46.5544 15.3311 67.2149 11.9053Z" fill="url(#paint2_linear)"/>
<path d="M90.8684 45.4521V163.636C82.3037 163.043 74.3364 162.136 67.209 160.957C46.5485 157.543 33.0568 151.907 33.0568 145.547V27.3452C33.0568 33.7226 46.5485 39.3592 67.209 42.7554C74.3364 43.9526 82.3037 44.8654 90.8684 45.4521Z" fill="url(#paint3_linear)"/>
<path d="M155.938 11.9053V42.773C176.598 39.359 190.09 33.7225 190.09 27.3628C190.09 21.0032 176.598 15.3311 155.938 11.9053Z" fill="url(#paint4_linear)"/>
<path d="M132.284 45.4521V163.636C140.849 163.043 148.816 162.136 155.943 160.957C176.604 157.543 190.096 151.907 190.096 145.547V27.3452C190.096 33.7226 176.604 39.3592 155.943 42.7554C148.816 43.9526 140.849 44.8654 132.284 45.4521Z" fill="url(#paint5_linear)"/>
<path d="M148.402 69.5391V153.945C154.518 153.524 160.232 152.872 165.295 152.031C180.052 149.595 189.688 145.57 189.688 141.012V56.6064C189.688 61.1643 180.052 65.1887 165.295 67.6247C160.214 68.4663 154.518 69.1183 148.402 69.5391Z" fill="url(#paint6_linear)"/>
<path d="M155.938 61.7276V146.134C162.054 145.719 167.767 145.067 172.83 144.225C187.588 141.783 197.223 137.759 197.223 133.201V48.7949C197.223 53.3528 187.588 57.3772 172.83 59.8191C167.744 60.6607 162.054 61.3127 155.938 61.7276Z" fill="white"/>
<path d="M155.938 61.7276V146.134C162.054 145.719 167.767 145.067 172.83 144.225C187.588 141.783 197.223 137.759 197.223 133.201V48.7949C197.223 53.3528 187.588 57.3772 172.83 59.8191C167.744 60.6607 162.054 61.3127 155.938 61.7276Z" fill="url(#paint7_linear)"/>
<path d="M45.3933 119.886C52.2133 119.402 56.9248 107.442 55.9165 93.1733C54.9083 78.9043 48.5622 67.7293 41.7422 68.2132C34.9221 68.6971 30.2106 80.6566 31.2189 94.9256C32.2271 109.194 38.5732 120.369 45.3933 119.886Z" fill="#55B6A2"/>
<path d="M45.3933 119.886C52.2133 119.402 56.9248 107.442 55.9165 93.1733C54.9083 78.9043 48.5622 67.7293 41.7422 68.2132C34.9221 68.6971 30.2106 80.6566 31.2189 94.9256C32.2271 109.194 38.5732 120.369 45.3933 119.886Z" fill="#55B6A2"/>
<path opacity="0.29" d="M45.3933 119.886C52.2133 119.402 56.9248 107.442 55.9165 93.1733C54.9083 78.9043 48.5622 67.7293 41.7422 68.2132C34.9221 68.6971 30.2106 80.6566 31.2189 94.9256C32.2271 109.194 38.5732 120.369 45.3933 119.886Z" fill="#020202"/>
<path d="M51.3159 107.116C49.6716 114.685 46.1109 119.907 41.6511 120.227C34.8313 120.713 28.4846 109.558 27.4554 95.2683C26.4263 80.9783 31.1581 69.0355 37.9779 68.5495C44.7978 68.0635 51.1503 79.218 52.1736 93.5139C52.5267 98.0659 52.238 102.645 51.3159 107.116Z" fill="url(#paint8_linear)"/>
<path d="M189.918 72.0759L189.711 71.5246C191.166 71.0107 192.555 70.3284 193.852 69.4917L194.189 69.9836C192.851 70.8446 191.418 71.5467 189.918 72.0759Z" fill="#79C2D9"/>
<path d="M181.093 74.4999L180.975 73.9072C182.199 73.6464 183.388 73.3738 184.524 73.0952L184.672 73.6879C183.524 73.9724 182.33 74.2451 181.093 74.4999Z" fill="#79C2D9"/>
<path d="M165.543 76.7999L165.49 76.2072C165.519 76.2072 168.489 75.9464 172.523 75.3774L172.605 75.9701C168.554 76.5095 165.573 76.794 165.543 76.7999Z" fill="#79C2D9"/>
<path d="M171.009 85.127L170.961 84.5343C170.961 84.5343 172.7 84.398 175.22 84.0542C180.088 83.3786 188.984 81.7546 193.863 78.4414L194.201 78.9274C189.22 82.3117 180.224 83.9594 175.303 84.641C172.759 84.9907 171.026 85.127 171.009 85.127Z" fill="#79C2D9"/>
<path d="M188.262 77.6947L188.085 77.102C190.121 76.5202 192.066 75.6564 193.864 74.5356L194.201 75.0217C192.357 76.1885 190.357 77.0884 188.262 77.6947Z" fill="#79C2D9"/>
<path d="M178.993 79.7986L178.928 79.2059C181.232 78.8925 183.512 78.4252 185.754 77.8071L185.902 78.3998C183.632 79.0152 181.324 79.4824 178.993 79.7986Z" fill="#79C2D9"/>
<path d="M166.75 81.2509L166.714 80.6582C166.756 80.6582 170.577 80.4211 175.415 79.7573L175.492 80.35C170.618 81.0198 166.791 81.2509 166.75 81.2509Z" fill="#79C2D9"/>
<path d="M171.801 93.9642L171.754 93.3715C171.902 93.3715 186.748 92.2157 193.852 87.3853L194.189 87.8772C186.961 92.7906 172.428 93.9168 171.801 93.9642Z" fill="#79C2D9"/>
<path d="M171.801 89.8568L171.754 89.2641C171.902 89.2641 186.748 88.0787 193.852 83.272L194.189 83.7639C186.961 88.6833 172.428 89.8094 171.801 89.8568Z" fill="#79C2D9"/>
<path d="M165.531 103.637V103.045C165.685 103.045 181.419 102.132 189.256 98.54L189.504 99.0735C181.531 102.719 165.691 103.625 165.531 103.637Z" fill="#79C2D9"/>
<path d="M172.582 111.751L172.541 111.158C172.682 111.158 186.736 110.103 193.863 105.279L194.201 105.765C186.961 110.684 172.724 111.739 172.582 111.751Z" fill="#79C2D9"/>
<path d="M172.582 107.407L172.541 106.814C172.682 106.814 186.736 105.765 193.863 100.935L194.201 101.427C186.961 106.346 172.724 107.401 172.582 107.407Z" fill="#79C2D9"/>
<path d="M165.531 119.824V119.231C165.685 119.231 181.419 118.324 189.256 114.727L189.504 115.266C181.531 118.911 165.691 119.818 165.531 119.824Z" fill="#79C2D9"/>
<path d="M172.582 127.938L172.541 127.345C172.682 127.345 186.736 126.296 193.863 121.465L194.201 121.957C186.961 126.889 172.724 127.926 172.582 127.938Z" fill="#79C2D9"/>
<path d="M172.582 123.599L172.541 123.007C172.682 123.007 186.736 121.952 193.863 117.127L194.201 117.613C186.961 122.532 172.724 123.587 172.582 123.599Z" fill="#79C2D9"/>
<path d="M51.3157 107.116L37.9955 92.3818V68.5495C44.8153 68.0635 51.1678 79.218 52.1911 93.5139C52.5384 98.0667 52.2437 102.646 51.3157 107.116Z" fill="#55B6A2"/>
<path d="M94.1453 166.356C94.1453 166.356 92.5364 167.637 92.8203 169.083C93.1043 170.529 98.6346 180.67 106.797 179.639C114.96 178.607 101.728 170.399 101.728 170.399L94.1453 166.356Z" fill="#66EAF6"/>
<path d="M96.6825 162.676C97.0164 162.695 97.3323 162.834 97.5731 163.067C97.8139 163.299 97.9637 163.611 97.9956 163.944C98.1376 165.165 99.5157 167.56 101.639 168.17C103.763 168.781 105.732 167.044 106.673 167.577C107.613 168.111 110.192 175.146 109.441 177.12C108.69 179.094 105.407 178.999 102.497 177.588C99.5867 176.177 94.3343 170.636 93.9617 168.472C93.5891 166.309 95.4996 163.239 96.6825 162.676Z" fill="#282328"/>
<path d="M37.9955 68.5493L42.8042 68.2352C42.8042 68.2352 50.7597 67.9388 54.7345 85.1508C56.534 92.5641 56.5503 100.3 54.7818 107.721L51.3157 107.128C51.3157 107.128 54.5629 72.0344 37.9955 68.5493Z" fill="#4AC961"/>
<path opacity="0.62" d="M37.9955 68.5493L42.8042 68.2352C42.8042 68.2352 50.7597 67.9388 54.7345 85.1508C56.534 92.5641 56.5503 100.3 54.7818 107.721L51.3157 107.128C51.3157 107.128 54.5629 72.0344 37.9955 68.5493Z" fill="#020202"/>
<defs>
<linearGradient id="paint0_linear" x1="114.827" y1="99.2332" x2="114.827" y2="163.743" gradientUnits="userSpaceOnUse">
<stop stop-color="#3B6B6E"/>
<stop offset="1" stop-color="#57B4A2"/>
</linearGradient>
<linearGradient id="paint1_linear" x1="114.827" y1="99.2332" x2="114.827" y2="163.743" gradientUnits="userSpaceOnUse">
<stop stop-color="#3B6B6E"/>
<stop offset="1" stop-color="#57B4A2"/>
</linearGradient>
<linearGradient id="paint2_linear" x1="8.27944" y1="65.4851" x2="127.026" y2="-24.5127" gradientUnits="userSpaceOnUse">
<stop offset="0.01"/>
<stop offset="0.13" stop-opacity="0.69"/>
<stop offset="0.25" stop-opacity="0.32"/>
<stop offset="1" stop-opacity="0"/>
</linearGradient>
<linearGradient id="paint3_linear" x1="-5200.05" y1="38184.7" x2="31229.9" y2="29067" gradientUnits="userSpaceOnUse">
<stop offset="0.01"/>
<stop offset="0.13" stop-opacity="0.69"/>
<stop offset="0.291667" stop-opacity="0.19"/>
<stop offset="1" stop-opacity="0"/>
</linearGradient>
<linearGradient id="paint4_linear" x1="12430.3" y1="3710.16" x2="5143.22" y2="-3336.22" gradientUnits="userSpaceOnUse">
<stop offset="0.01"/>
<stop offset="0.13" stop-opacity="0.69"/>
<stop offset="0.25" stop-opacity="0.32"/>
<stop offset="1" stop-opacity="0"/>
</linearGradient>
<linearGradient id="paint5_linear" x1="24654.8" y1="25411.5" x2="-2170.44" y2="23823.3" gradientUnits="userSpaceOnUse">
<stop offset="0.01"/>
<stop offset="0.333333"/>
<stop offset="0.708333" stop-opacity="0.81"/>
<stop offset="1" stop-opacity="0"/>
</linearGradient>
<linearGradient id="paint6_linear" x1="16380.2" y1="13200.3" x2="2955.71" y2="15801.4" gradientUnits="userSpaceOnUse">
<stop offset="0.01"/>
<stop offset="0.13" stop-opacity="0.69"/>
<stop offset="0.25" stop-opacity="0.32"/>
<stop offset="1" stop-opacity="0"/>
</linearGradient>
<linearGradient id="paint7_linear" x1="17026.5" y1="16534.1" x2="8343.94" y2="16500.8" gradientUnits="userSpaceOnUse">
<stop offset="0.01"/>
<stop offset="0.13" stop-opacity="0.69"/>
<stop offset="0.25" stop-opacity="0.32"/>
<stop offset="1" stop-opacity="0"/>
</linearGradient>
<linearGradient id="paint8_linear" x1="27.4758" y1="72.8642" x2="51.9612" y2="122.306" gradientUnits="userSpaceOnUse">
<stop stop-color="#56C4CD"/>
<stop offset="1" stop-color="#5DF7BE"/>
</linearGradient>
</defs>
</svg>
