<svg width="232" height="206" viewBox="0 0 232 206" fill="none" xmlns="http://www.w3.org/2000/svg">
<path opacity="0.18" d="M227.187 128.53C224.846 121.062 221.267 114.041 216.6 107.758C209.075 97.6398 198.98 89.2842 193.542 77.9087C175.808 40.8287 151.656 5.03609 106.365 5C64.2978 5 51.3523 37.3036 48.8739 42.0499C42.8583 53.5697 43.538 67.3634 39.9167 79.8457C34.8696 97.2247 21.9241 110.94 11.3066 125.564C7.54087 130.762 3.94957 136.356 2.88482 142.684C2.23513 146.558 2.56599 150.505 2.92693 154.439C3.81121 164.01 8.34094 169.568 12.4135 177.677C16.4001 185.62 22.7798 192.111 30.6527 196.235C44.7532 203.508 65.0437 200.861 80.203 198.208C98.5805 194.996 116.05 187.615 135.023 188.451C146.456 188.975 157.823 190.478 168.999 192.944C176.554 194.617 182.161 198.31 190.144 197.222C206.644 194.966 221.286 181.617 226.923 166.283C231.356 154.222 231.043 140.88 227.187 128.53Z" fill="#56B19F"/>
<path d="M43.2913 179.662L43.1951 179.758C37.3479 185.684 51.5627 189.293 55.2262 189.901C64.2857 191.399 75.3904 188.541 84.5581 187.958C105.412 186.646 126.316 186.221 147.27 186.682C157.425 186.911 168.066 187.248 177.168 182.73C178.371 182.129 179.616 181.323 179.869 180.029C180.344 177.623 177.144 175.716 177.559 173.328C179.634 171.216 183.003 171.415 185.908 170.843C188.814 170.272 191.978 167.463 190.613 164.828C190.107 163.847 189.091 163.252 188.11 162.74C177.252 157.062 166.502 155.077 154.255 154.283C126.878 152.52 100.656 155.654 73.5857 159.035C57.5542 161.038 41.631 157.832 26.1169 161.748C22.1646 162.752 21.9842 168.365 25.8522 169.634C30.6818 171.201 35.6718 172.222 40.7287 172.678C41.5038 172.751 42.2425 173.041 42.8593 173.516C43.4761 173.991 43.9458 174.631 44.2139 175.362C44.4821 176.092 44.5377 176.884 44.3745 177.645C44.2112 178.406 43.8356 179.106 43.2913 179.662Z" fill="url(#paint0_linear)"/>
<g opacity="0.41">
<path opacity="0.41" d="M73.1106 113.437H50.2875V133.318H73.1106V113.437Z" fill="#78D1E1"/>
</g>
<path d="M95.7531 97.9707H72.9301V133.312H95.7531V97.9707Z" fill="#79C2D9"/>
<g opacity="0.5">
<path opacity="0.5" d="M118.396 81.6504H95.5729V133.318H118.396V81.6504Z" fill="#78D1E1"/>
</g>
<path d="M141.039 65.7573H118.215V133.312H141.039V65.7573Z" fill="#79C2D9"/>
<path d="M163.681 49.7437H140.858V133.318H163.681V49.7437Z" fill="#4AC961"/>
<path d="M163.681 49.7437H140.858V133.318H163.681V49.7437Z" fill="url(#paint1_linear)"/>
<path d="M54.0593 131.411L173.083 121.54L178.365 177.424L59.335 187.296L54.0593 131.411Z" fill="url(#paint2_linear)"/>
<path d="M82.4468 185.377L170.731 149.795L159.807 122.64L162.586 122.412L152.239 96.96L137.201 101.081L130.078 106.314L66.2349 186.237L82.4468 185.377Z" fill="url(#paint3_linear)"/>
<path fill-rule="evenodd" clip-rule="evenodd" d="M166.347 135.799C162.866 135.569 160.143 132.918 159.84 129.67L61.6569 137.812L65.6031 179.554L163.787 171.412C163.755 171.072 163.75 170.725 163.773 170.374C163.994 167.025 166.727 164.418 170.092 164.137L167.412 135.791C167.063 135.819 166.708 135.822 166.347 135.799ZM114.496 138.13C123.666 138.734 130.628 146.383 130.046 155.215C129.464 164.046 121.558 170.716 112.389 170.111C103.219 169.507 96.2575 161.858 96.8395 153.026C97.4214 144.195 105.327 137.526 114.496 138.13Z" fill="url(#paint4_linear)"/>
<path d="M112.831 166.524L112.675 163.565C111.044 163.632 109.426 163.253 107.995 162.47L108.596 160.497C109.933 161.245 111.451 161.61 112.982 161.549C115.135 161.453 116.507 160.208 116.423 158.542C116.338 156.875 115.111 156.009 112.813 155.227C109.673 154.204 107.706 152.953 107.574 150.415C107.441 148.008 109.12 146.101 111.875 145.542L111.718 142.588L113.589 142.498L113.734 145.313C115.106 145.27 116.468 145.559 117.704 146.156L117.072 148.141C115.885 147.528 114.556 147.243 113.222 147.317C110.9 147.419 110.1 148.796 110.16 149.957C110.245 151.461 111.4 152.165 114.052 153.097C117.235 154.174 118.865 155.618 119.009 158.199C119.13 160.491 117.584 162.716 114.516 163.348L114.672 166.356L112.831 166.524Z" fill="url(#paint5_linear)"/>
<path d="M84.943 157.648C85.0918 155.39 83.3097 153.435 80.9626 153.28C78.6155 153.125 76.5922 154.83 76.4434 157.088C76.2947 159.345 78.0768 161.301 80.4239 161.455C82.771 161.61 84.7943 159.905 84.943 157.648Z" fill="#4AC961"/>
<path d="M35.6096 136.374L147.15 95.5405L168.066 147.99L56.5258 188.824L35.6096 136.374Z" fill="url(#paint6_linear)"/>
<path fill-rule="evenodd" clip-rule="evenodd" d="M142.799 111.186C139.991 111.001 137.676 109.24 136.727 106.861L51.2356 138.158C51.5888 139.039 51.7546 140.005 51.6885 141.008C51.5104 143.711 49.6959 145.931 47.2332 146.834L57.8406 173.422C58.7512 173.088 59.7504 172.935 60.7882 173.003C63.5987 173.188 65.9147 174.951 66.8625 177.332L152.364 146.032C152.011 145.15 151.845 144.184 151.911 143.181C152.089 140.484 153.897 138.267 156.352 137.36L145.743 110.768C144.834 111.101 143.836 111.254 142.799 111.186ZM100.145 126.635C109.315 127.239 116.276 134.888 115.694 143.72C115.112 152.551 107.207 159.221 98.0376 158.617C88.868 158.012 81.9063 150.363 82.4882 141.532C83.0702 132.7 90.9754 126.031 100.145 126.635ZM72.7998 154.657C72.9486 152.399 71.1665 150.444 68.8194 150.289C66.4723 150.134 64.449 151.839 64.3002 154.097C64.1515 156.354 65.9336 158.31 68.2807 158.464C70.6278 158.619 72.6511 156.914 72.7998 154.657ZM131.187 128.048C133.539 128.212 135.318 130.18 135.159 132.442C135.001 134.705 132.966 136.405 130.613 136.241C128.261 136.076 126.483 134.109 126.641 131.846C126.799 129.584 128.835 127.883 131.187 128.048Z" fill="#46857E"/>
<path d="M70.6083 94.4937C70.5734 94.5309 70.545 94.5736 70.524 94.62C70.4126 95.0948 70.4126 95.589 70.524 96.0638C70.672 97.1089 70.9239 98.1366 71.276 99.1317C71.301 99.2259 71.3484 99.3126 71.4143 99.3844C71.4917 99.4423 71.5876 99.4699 71.684 99.4622C71.7803 99.4544 71.8705 99.4118 71.9377 99.3423C72.0651 99.1968 72.1522 99.0205 72.1903 98.8309C72.3241 98.276 72.4246 97.7135 72.4911 97.1466C72.5934 96.4247 73.5679 96.0157 74.1274 95.6908C74.1745 95.6685 74.2142 95.6329 74.2417 95.5885C74.2417 95.5284 74.5785 96.2924 74.5605 96.2322C74.424 95.7943 74.253 95.3678 74.0492 94.9569C74.0492 94.9208 73.6882 94.0486 73.6581 94.0305C73.6281 94.0125 73.5318 94.0305 73.4777 94.0666C73.0115 94.2872 72.4802 94.3279 71.9858 94.1809C71.7483 94.1141 71.4979 94.1077 71.2573 94.1623C71.0167 94.217 70.7936 94.3309 70.6083 94.4937Z" fill="#FCAB9A"/>
<path d="M71.3901 93.9761C70.9747 93.876 70.5375 93.9205 70.1509 94.1025C70.0254 94.1542 69.92 94.2449 69.8501 94.3611C69.804 94.4776 69.7875 94.6037 69.802 94.7281C69.8293 96.3414 70.0907 97.9422 70.578 99.4804C70.6337 99.6798 70.7254 99.8674 70.8487 100.034C70.911 100.118 70.9944 100.185 71.0904 100.227C71.1864 100.269 71.2918 100.286 71.3961 100.274C71.5405 100.249 71.6743 100.182 71.7811 100.082C71.9764 99.9112 72.1355 99.7031 72.2491 99.4699C72.3627 99.2367 72.4285 98.9831 72.4425 98.7241C72.4565 98.465 72.4185 98.2058 72.3307 97.9617C72.243 97.7176 72.1072 97.4936 71.9315 97.3028C71.7915 97.1771 71.6664 97.0358 71.5585 96.8817C71.4722 96.7249 71.4151 96.5536 71.3901 96.3764C71.3001 95.9262 71.2458 95.4696 71.2277 95.0108C71.2628 94.6632 71.317 94.3178 71.3901 93.9761Z" fill="#473F47"/>
<path d="M83.9387 86.12C83.6171 87.0866 83.2146 88.0243 82.7356 88.9233C81.6648 90.728 79.9864 92.1236 78.2961 93.3929C77.3757 94.0847 76.4493 94.7524 75.4988 95.4021C75.0054 95.6713 74.4903 95.8987 73.9588 96.0818C73.9082 96.1125 73.8495 96.1271 73.7904 96.1239C73.7439 96.1094 73.7022 96.0824 73.6701 96.0457C72.9362 95.39 72.4188 94.5418 73.2249 93.8861C74.0407 93.2644 74.7851 92.5542 75.4447 91.7687C76.744 90.1324 77.8509 88.2616 79.5714 87.0344C79.7635 86.9418 79.9162 86.7837 80.0022 86.5885C80.0882 86.3934 80.1018 86.1739 80.0406 85.9696C79.8721 83.5634 79.7859 81.1432 79.7819 78.7089C79.7344 78.0448 79.8372 77.3786 80.0827 76.7598C80.8226 75.2258 83.4995 75.0333 84.9433 75.1717C85.2823 75.1742 85.6138 75.2722 85.8997 75.4544C87.554 76.7598 86.8141 78.39 86.2246 79.9781L83.9387 86.12Z" fill="#473F47"/>
<path d="M91.9033 66.726C92.2161 67.0027 96.9744 68.5306 97.588 68.3622C98.3159 68.1757 100.211 62.8519 100.776 60.9089C100.799 60.8566 100.81 60.8003 100.81 60.7435C100.81 60.6866 100.799 60.6303 100.776 60.578C100.75 60.5335 100.712 60.4963 100.668 60.4698C99.5009 59.7178 98.8031 61.4864 98.5204 62.2744C98.0718 63.4916 97.4651 64.6445 96.7157 65.7033C95.5126 65.7996 92.6191 64.6386 92.2702 64.6265C92.0835 64.6208 91.8989 64.6666 91.7365 64.7589C91.5742 64.8513 91.4404 64.9865 91.3498 65.1499C91.0791 65.7274 91.4822 66.3349 91.9033 66.726Z" fill="#FCAB9A"/>
<path d="M92.4205 63.8021C92.5649 63.8984 92.7093 63.9886 92.8597 64.0728C92.9253 64.0986 92.9789 64.1479 93.0101 64.2112C93.0251 64.2622 93.0251 64.3165 93.0101 64.3676L92.7273 65.6549C92.6407 66.2301 92.4359 66.781 92.1258 67.2731C91.9513 67.5077 90.676 66.6716 90.4955 66.5332C89.9661 66.1831 89.5036 65.741 89.13 65.2278C88.9567 65.0064 88.8243 64.7558 88.739 64.4879C88.6173 63.8366 88.7169 63.1632 89.0217 62.5749C89.521 61.6064 90.3512 62.0817 90.9888 62.6772C91.4281 63.0981 91.9077 63.4749 92.4205 63.8021Z" fill="#55B6A2"/>
<path d="M85.0695 97.1585C85.0969 97.195 85.1293 97.2274 85.1658 97.2548C85.5792 97.4504 86.0318 97.5492 86.4892 97.5435C87.4711 97.6048 88.4566 97.5665 89.4308 97.4292C89.5239 97.424 89.6145 97.3973 89.6955 97.351C89.7614 97.2911 89.8033 97.2092 89.8132 97.1206C89.8232 97.0321 89.8006 96.9429 89.7496 96.8698C89.642 96.7232 89.4964 96.6088 89.3285 96.5389C88.8459 96.3084 88.3497 96.1075 87.8427 95.9374C87.6201 95.8532 87.4276 95.8171 87.4276 95.5343C87.4312 95.4018 87.4598 95.2712 87.5118 95.1493L87.6682 94.6922C87.7224 94.5297 87.7765 94.3312 87.6682 94.2049C87.5944 94.1396 87.5017 94.0996 87.4036 94.0906C86.9582 94.0003 86.5044 93.958 86.0501 93.9643C86.0057 93.9588 85.9609 93.9695 85.9237 93.9944C85.8983 94.017 85.8796 94.0461 85.8696 94.0786C85.5508 94.8185 84.474 96.3946 85.0695 97.1585Z" fill="#FCAB9A"/>
<path d="M81.1835 73.4634C81.1835 73.4634 78.7773 76.8321 81.2497 79.8279C82.9762 81.9092 85.5568 83.3229 87.933 84.514C88.3481 84.7245 88.8413 84.899 89.2444 85.1516C90.0324 85.6389 89.5452 86.06 89.1301 86.7217C88.0894 88.4061 87.0307 90.0724 85.9659 91.7387C85.3449 92.5734 84.9212 93.538 84.7267 94.56L87.4217 95.3721C88.8664 92.8995 90.5144 90.5513 92.3484 88.3519C93.1425 87.4015 94.1531 86.2404 94.0268 84.917C93.8423 83.6985 93.3049 82.5608 92.4808 81.6446L87.4217 75.7854L81.1835 73.4634Z" fill="#473F47"/>
<path d="M92.8959 57.3716C92.9801 57.6243 93.2207 57.8168 93.2568 58.0875C93.2929 58.3582 93.0222 58.6891 92.8478 58.9477C92.6071 59.3267 92.547 59.8019 92.3064 60.1869C92.2637 60.2725 92.1967 60.3437 92.1139 60.3915C92.0339 60.4157 91.9508 60.4278 91.8672 60.4276C91.5466 60.4206 91.2286 60.3679 90.9228 60.2711C90.8692 60.2368 90.8055 60.2219 90.7423 60.229C90.6888 60.2615 90.6467 60.3099 90.622 60.3674C90.264 61.1175 90.0927 61.943 90.1227 62.7736C90.1227 63.0383 90.1227 63.3752 89.9061 63.5135C89.8245 63.5622 89.7303 63.5852 89.6354 63.5797C89.0339 63.5797 88.5346 63.0263 88.2338 62.4728C87.9725 61.977 87.7706 61.452 87.6323 60.9088C87.5843 60.7511 87.5659 60.5859 87.5781 60.4215C87.6078 60.2278 87.6753 60.0419 87.7766 59.8741C88.0896 59.2607 88.3415 58.6179 88.5286 57.9552C88.6923 57.0899 88.9906 56.2556 89.4129 55.4828C89.5697 55.2309 89.804 55.0367 90.0806 54.9293C90.3949 54.8561 90.7232 54.8686 91.0311 54.9654C91.669 55.0672 92.2438 55.4094 92.6372 55.9219C92.7395 56.1144 92.7936 57.0588 92.8959 57.3716Z" fill="#FCAB9A"/>
<path d="M86.7238 76.2244C86.1847 76.3141 85.6325 76.2853 85.1056 76.1402C84.3322 75.9817 83.5398 75.9371 82.7535 76.0078C82.2861 76.1182 81.8292 76.2691 81.388 76.459C80.5097 76.7177 78.9156 76.5011 78.9336 75.3401C78.9998 71.7308 80.3954 68.2959 81.9414 65.0354C82.5971 63.6338 83.3491 62.178 84.6604 61.3659C85.1211 61.0739 85.6395 60.8849 86.1801 60.8119C86.7206 60.7389 87.2706 60.7836 87.7922 60.943C88.3139 61.1024 88.7949 61.3727 89.2023 61.7354C89.6097 62.0981 89.9339 62.5446 90.1527 63.0443C90.5097 63.8877 90.7134 64.7881 90.7542 65.7032C90.8565 66.8461 90.8745 68.1094 90.2369 69.0418C89.9353 69.4379 89.6035 69.8099 89.2443 70.1547C88.3842 71.0868 87.8082 72.245 87.584 73.4933C87.3855 74.4558 88.2036 75.9236 86.7238 76.2244Z" fill="#55B6A2"/>
<path d="M92.601 55.519C92.1679 56.2108 91.44 55.9281 90.8445 56.2108C90.2489 56.4935 90.2429 57.3598 89.6414 57.7568C89.3887 57.9433 89.0759 58.0756 88.9255 58.3583C88.8246 58.6016 88.7893 58.8671 88.8233 59.1283C88.8443 59.5151 88.8443 59.9026 88.8233 60.2893C88.8241 60.6353 88.7191 60.9732 88.5225 61.2579C88.0833 61.7692 87.2773 61.6308 86.6035 61.697C85.2861 61.8293 84.8409 63.0746 83.9687 63.9167C83.5416 64.3318 83.0664 64.6927 82.6753 65.1198C82.0851 65.8415 81.6158 66.6541 81.2857 67.5261C81.0251 68.2122 80.6796 68.8629 80.2571 69.4631C80.0468 69.7634 79.779 70.0191 79.4692 70.2153C79.1594 70.4115 78.8138 70.5443 78.4524 70.606C78.1093 70.6332 77.7644 70.5889 77.4393 70.4761C77.1142 70.3632 76.816 70.1842 76.5635 69.9504C76.1233 69.5462 75.8091 69.0236 75.6586 68.4452C75.5081 67.8669 75.5278 67.2574 75.7153 66.6899C75.8158 66.5063 75.8437 66.2916 75.7935 66.0884C75.736 65.9787 75.6561 65.8824 75.5589 65.8056C75.1234 65.3567 74.8799 64.7558 74.8799 64.1303C74.8799 63.5048 75.1234 62.9039 75.5589 62.4549C76.0342 62.0038 77.1711 61.5767 77.2312 60.8368C77.2914 60.0968 76.6297 59.375 76.9124 58.5268C77.0078 58.2675 77.1483 58.0272 77.3275 57.8169C77.6662 57.3071 78.1302 56.8928 78.675 56.6138C79.2202 56.4242 79.7942 56.3306 80.3714 56.3371C82.2242 56.2048 84.1612 55.6393 85.3823 54.2317C85.6592 53.8668 85.9629 53.5229 86.2907 53.203C86.6747 52.9067 87.1116 52.6862 87.578 52.5533C88.7009 52.1273 89.9376 52.1081 91.0731 52.4992C91.4665 52.6658 91.8173 52.9189 92.0995 53.2396C92.3817 53.5604 92.5881 53.9406 92.7033 54.352C92.7731 54.5421 92.8001 54.7452 92.7824 54.9469C92.7647 55.1486 92.7028 55.3439 92.601 55.519Z" fill="#FC682D"/>
<path d="M99.2964 59.1765C99.1173 59.1921 98.9458 59.2564 98.8005 59.3624C98.6553 59.4685 98.5418 59.6122 98.4723 59.778C98.4159 60.0001 98.4283 60.234 98.5078 60.4488C98.5873 60.6637 98.7301 60.8493 98.9174 60.9811C99.2971 61.2354 99.7325 61.3943 100.187 61.4443C100.252 61.4647 100.321 61.4704 100.388 61.461C100.456 61.4517 100.521 61.4275 100.578 61.3902C100.637 61.3242 100.677 61.2429 100.692 61.1556C100.801 60.8471 100.846 60.5196 100.824 60.1931C100.725 59.874 100.519 59.5988 100.241 59.4137C99.9626 59.2286 99.6291 59.1448 99.2964 59.1765Z" fill="#FCAB9A"/>
<path d="M84.7387 96.3407C84.5694 96.7012 84.5291 97.1089 84.6244 97.4957C84.6488 97.6203 84.7119 97.734 84.8048 97.8205C84.9024 97.8852 85.0136 97.9263 85.1297 97.9408C86.6192 98.217 88.1406 98.2778 89.6474 98.1213C89.8411 98.1075 90.0307 98.0586 90.2068 97.9769C90.294 97.9328 90.3692 97.8682 90.4258 97.7885C90.4824 97.7088 90.5187 97.6166 90.5317 97.5197C90.5319 97.3876 90.4944 97.2582 90.4234 97.1468C90.3061 96.933 90.1468 96.7452 89.9549 96.5947C89.7631 96.4442 89.5427 96.3341 89.3071 96.2712C89.0716 96.2082 88.8257 96.1936 88.5843 96.2283C88.343 96.263 88.1112 96.3463 87.9029 96.473C87.7609 96.5749 87.6099 96.6635 87.4517 96.7377C87.2914 96.7827 87.1247 96.801 86.9584 96.7918C86.5269 96.7949 86.096 96.7587 85.6711 96.6836C85.3537 96.5881 85.0423 96.4736 84.7387 96.3407Z" fill="#473F47"/>
<path d="M82.0076 63.5377C81.4903 63.5377 81.406 62.7076 80.991 63.0324C79.7837 63.9694 78.6623 65.0122 77.6403 66.1485C76.9305 66.9666 74.5784 71.0452 74.0971 71.7009C73.3445 72.5798 72.7795 73.6033 72.4368 74.7086C72.3338 75.0256 72.3466 75.3688 72.4729 75.6771C73.0745 76.8803 75.0175 74.5763 75.3664 74.0108C75.6311 74.2033 76.0281 74.3718 76.2447 74.1251C76.5455 73.7883 76.0883 73.2829 75.9439 72.9701C75.7728 72.554 75.7599 72.0897 75.9078 71.6648C76.1013 71.1594 76.3868 70.6944 76.75 70.2932C78.3535 68.3509 80.3451 66.765 82.5971 65.6372C82.922 65.4747 83.2889 65.2822 83.3852 64.9333C83.4255 64.7607 83.4108 64.5798 83.3431 64.416C83.2394 64.1489 83.0551 63.9208 82.8157 63.7634C82.5764 63.606 82.2939 63.5271 82.0076 63.5377Z" fill="#FCAB9A"/>
<path d="M87.4218 64.0186C87.4218 64.0186 81.4062 66.876 81.0573 67.1828C80.7084 67.4896 78.9158 63.8562 78.9158 63.8562C78.9158 63.8562 84.8471 60.3551 86.736 60.5717C88.6249 60.7882 89.2986 62.8275 87.4218 64.0186Z" fill="#55B6A2"/>
<path d="M152.27 47.7376C157.834 47.7376 162.346 43.2264 162.346 37.6615C162.346 32.0967 157.834 27.5854 152.27 27.5854C146.705 27.5854 142.193 32.0967 142.193 37.6615C142.193 43.2264 146.705 47.7376 152.27 47.7376Z" fill="#F8C244"/>
<path d="M152.269 46.2518C157.014 46.2518 160.86 42.4058 160.86 37.6615C160.86 32.9173 157.014 29.0713 152.269 29.0713C147.525 29.0713 143.679 32.9173 143.679 37.6615C143.679 42.4058 147.525 46.2518 152.269 46.2518Z" fill="#E8A825"/>
<mask id="mask0" mask-type="alpha" maskUnits="userSpaceOnUse" x="143" y="29" width="18" height="18">
<path d="M152.269 46.2518C157.014 46.2518 160.86 42.4058 160.86 37.6615C160.86 32.9173 157.014 29.0713 152.269 29.0713C147.525 29.0713 143.679 32.9173 143.679 37.6615C143.679 42.4058 147.525 46.2518 152.269 46.2518Z" fill="#E8A825"/>
</mask>
<g mask="url(#mask0)">
<path d="M156.82 28.6371C157.598 28.9382 158.334 29.328 159.014 29.7987L153.882 40.9621L148.991 40.8715L147.473 38.2419L152.363 38.3325L156.82 28.6371Z" fill="#F8C244"/>
</g>
<path d="M103.118 147.591L99.1688 149.203L100.493 152.445L98.241 153.364L96.9173 150.122L94.4772 151.119L93.7167 149.256L96.1568 148.26L95.4974 146.645L93.0573 147.641L92.3016 145.791L94.7417 144.794L91.2327 136.201L97.5629 133.616C99.4018 132.865 101.05 132.738 102.509 133.233C103.967 133.729 105.022 134.774 105.674 136.369C106.357 138.043 106.367 139.548 105.701 140.883C105.041 142.207 103.761 143.261 101.863 144.046L97.7489 145.726L98.4083 147.341L102.357 145.728L103.118 147.591ZM96.9932 143.875L101.072 142.21C102.29 141.712 103.1 141.047 103.502 140.213C103.905 139.379 103.881 138.413 103.432 137.312C103.024 136.314 102.365 135.644 101.455 135.3C100.541 134.949 99.5211 134.999 98.3941 135.45L94.2447 137.144L96.9932 143.875Z" fill="#46857E"/>
<defs>
<linearGradient id="paint0_linear" x1="106.822" y1="92.9177" x2="107.303" y2="284.393" gradientUnits="userSpaceOnUse">
<stop offset="0.01"/>
<stop offset="0.08" stop-opacity="0.69"/>
<stop offset="0.21" stop-opacity="0.32"/>
<stop offset="1" stop-opacity="0"/>
</linearGradient>
<linearGradient id="paint1_linear" x1="154" y1="121" x2="154" y2="44.4999" gradientUnits="userSpaceOnUse">
<stop offset="0.465898" stop-color="#5EB2CE"/>
<stop offset="1" stop-color="#68F6FF"/>
</linearGradient>
<linearGradient id="paint2_linear" x1="49.5" y1="197" x2="178" y2="117" gradientUnits="userSpaceOnUse">
<stop stop-color="#5DF9BD"/>
<stop offset="1" stop-color="#56C4CD"/>
</linearGradient>
<linearGradient id="paint3_linear" x1="16058.4" y1="13759.9" x2="24007.5" y2="40607.2" gradientUnits="userSpaceOnUse">
<stop offset="0.01"/>
<stop offset="0.08" stop-opacity="0.69"/>
<stop offset="0.21" stop-opacity="0.32"/>
<stop offset="1" stop-opacity="0"/>
</linearGradient>
<linearGradient id="paint4_linear" x1="102.636" y1="39.9134" x2="129.274" y2="376.456" gradientUnits="userSpaceOnUse">
<stop offset="0.01"/>
<stop offset="0.13" stop-opacity="0.69"/>
<stop offset="0.25" stop-opacity="0.32"/>
<stop offset="1" stop-opacity="0"/>
</linearGradient>
<linearGradient id="paint5_linear" x1="-15149.7" y1="-69430.1" x2="-7702.13" y2="-62447.5" gradientUnits="userSpaceOnUse">
<stop offset="0.01"/>
<stop offset="0.13" stop-opacity="0.69"/>
<stop offset="0.25" stop-opacity="0.32"/>
<stop offset="1" stop-opacity="0"/>
</linearGradient>
<linearGradient id="paint6_linear" x1="52" y1="193" x2="164.5" y2="93.5002" gradientUnits="userSpaceOnUse">
<stop stop-color="#5DFCBC"/>
<stop offset="1" stop-color="#55BCCF"/>
</linearGradient>
</defs>
</svg>
