<svg width="232" height="206" viewBox="0 0 232 206" fill="none" xmlns="http://www.w3.org/2000/svg">
<path opacity="0.18" d="M209.306 123.867C213.143 113.556 215.515 101.469 210.102 91.8644C206.419 85.3386 199.79 81.1256 193.161 77.6049C174.143 67.5289 153.012 60.8558 136.565 47.0161C133.869 44.7475 131.276 42.2728 128.087 40.7923C124.706 39.2161 120.898 38.8773 117.179 38.5827C101.085 37.279 84.5719 36.3067 69.1265 40.9912C53.6811 45.6756 39.3406 57.1952 35.7462 72.9278C32.9842 85.0735 36.829 98.1398 33.2641 110.079C30.3179 119.978 22.5473 127.963 19.9326 137.965C15.5133 154.67 27.4012 172.31 42.9128 179.948C58.4245 187.586 76.5362 187.314 93.7346 185.936C102.389 185.236 111.065 184.264 119.455 182.04C126.99 180.044 134.318 177.031 142.081 176.538C154.19 175.764 167.618 180.906 177.767 174.262C181.31 171.949 183.947 168.414 187.571 166.226C195.069 161.704 198.796 160.489 200.438 151.701C202.294 141.876 205.852 133.163 209.306 123.867Z" fill="#56B19F"/>
<path d="M104.245 129.767C104.245 129.767 52.0239 136.035 46.6324 149.19C43.0425 157.734 38.8584 166.016 34.1111 173.975C34.1111 173.975 77.722 209.852 112.296 198.531C146.869 187.21 149.764 179.793 167.227 181.09C184.691 182.386 199.208 163 199.208 154.928C199.208 146.855 145.212 130.275 136.513 130.806C127.815 131.336 104.245 129.767 104.245 129.767Z" fill="url(#paint0_linear)"/>
<path d="M105.468 129.266C105.468 131.115 104.974 128.073 104.23 129.767C103.243 132.021 101.593 138.532 100.503 140.727C98.6252 144.491 100.444 149.3 103.641 152.062C106.838 154.825 111.073 155.988 115.19 156.916C121.281 158.286 128.242 159.126 133.258 155.443C138.053 151.9 139.415 145.272 139.017 139.328C138.765 136.379 138.342 133.448 137.751 130.548L134.208 111.28C134.194 111.035 134.126 110.796 134.007 110.581C133.888 110.366 133.722 110.181 133.522 110.039C133.321 109.897 133.091 109.803 132.849 109.763C132.607 109.722 132.359 109.738 132.123 109.807C125.494 109.726 114.8 109.925 109.01 113.629C103.604 117.025 105.453 122.991 105.468 129.266Z" fill="url(#paint1_linear)"/>
<path d="M105.136 133.531C106.168 135.627 107.668 137.457 109.52 138.881C111.372 140.305 113.526 141.284 115.816 141.744C120.442 142.616 125.227 141.747 129.251 139.306C132.536 137.361 135.357 134.422 136.513 130.791C137.07 128.72 137.357 126.586 137.368 124.442L137.655 118.299C135.799 120.995 132.425 122.218 129.185 122.674C121.024 123.801 113.916 120.855 106.278 118.645C102.691 117.592 102.757 119.78 103.044 122.822C103.383 126.379 103.612 130.209 105.136 133.531Z" fill="url(#paint2_linear)"/>
<path d="M92.1436 107.958C92.1436 107.958 105.401 129.929 114.704 130.961C124.007 131.992 137.949 131.601 147.849 108.496C157.748 85.3904 159.486 54.6543 143.739 49.1817C143.724 49.1817 66.5192 28.5658 92.1436 107.958Z" fill="url(#paint3_linear)"/>
<path d="M146.67 108.856C146.39 110.33 146.037 111.935 144.888 112.885C143.311 114.218 140.881 113.784 139.069 112.819C135.386 110.86 132.889 107.221 130.017 104.157C128.773 102.809 127.354 101.635 125.796 100.666L127.468 103.988C127.8 104.59 128.065 105.228 128.256 105.888C128.434 106.614 128.434 107.372 128.256 108.098C128.227 108.264 128.159 108.42 128.058 108.554C127.903 108.71 127.706 108.818 127.49 108.864C126.583 109.096 125.65 109.213 124.714 109.21C123.072 109.384 121.413 109.231 119.83 108.761C119.374 108.591 118.866 108.275 118.821 107.781C118.762 107.096 119.624 106.713 120.294 106.625C121.23 106.625 122.114 106.507 123.034 106.625C124.301 106.743 124.257 106.846 124.264 105.527C124.264 103.634 124.264 101.763 124.213 99.8485C122.587 99.0702 120.761 98.813 118.983 99.1119C115.522 99.7895 113.01 102.743 111.073 105.682C109.136 108.621 107.346 111.891 104.4 113.769C101.078 115.846 95.1855 115.426 94.6405 110.823C94.0512 105.925 96.9017 99.8927 99.6343 96.0332C103.309 90.8785 108.616 87.1154 114.697 85.3532C116.836 84.6751 119.092 84.442 121.326 84.6682C123.778 84.985 126.069 86.0824 128.301 87.1578L140.019 92.785C142.03 93.7499 144.107 94.7663 145.499 96.5119C148.129 99.8558 147.466 104.651 146.67 108.856Z" fill="url(#paint4_linear)"/>
<path d="M170.225 46.8909C170.284 47.4433 170.829 47.7968 171.249 48.1872C172.994 49.8591 172.258 52.9232 170.608 54.6909C168.958 56.4586 166.653 57.4603 164.811 59.0291C163.69 59.9191 162.941 61.1957 162.712 62.6088C162.388 64.5459 162.955 66.6303 163.029 68.8105C163.054 69.423 163.027 70.0365 162.948 70.6445C162.256 75.8614 160.305 80.8314 157.262 85.125C156.356 86.355 155.163 87.6145 153.638 87.6808C151.17 87.7913 149.764 84.9409 149.101 82.5618C147.753 77.7317 146.769 72.8077 146.155 67.8309C145.919 65.9453 145.737 64.0573 145.609 62.1668C145.123 64.4501 141.816 65.0025 139.864 63.721C139.754 63.6473 139.651 63.5736 139.54 63.4853C137.809 62.1668 136.911 60.0014 135.953 58.0127C134.922 55.9062 133.508 53.7039 131.247 53.1147C128.684 52.4592 126.091 53.1147 123.462 53.0116C119.433 52.8422 115.396 52.3929 111.375 52.0909C109.165 51.9288 106.956 51.7668 104.893 52.5549C104.169 52.8199 103.502 53.2198 102.927 53.7334C102.385 54.1931 101.963 54.7766 101.695 55.4343C101.427 56.0921 101.321 56.8047 101.387 57.5119C97.3068 57.3719 97.1595 60.6496 94.1396 63.4042C91.1198 66.1589 85.7283 68.6926 88.0778 72.0292C90.5232 75.5057 88.6744 77.7964 88.4461 81.9063C88.0705 88.7267 85.9713 95.3262 83.8943 101.845C80.7418 97.3296 77.5379 92.7041 76.1237 87.3936C75.3872 84.7199 74.9526 82.0978 74.4591 79.5199C73.7226 75.41 72.8387 71.3663 70.7764 67.3227C69.865 65.7859 69.0697 64.1831 68.3973 62.5277C67.5429 60.0014 67.6608 57.2614 67.8375 54.6025C68.1764 48.9237 68.6257 42.8178 72.1684 38.3985C73.4725 36.8075 75.1327 35.5459 77.0149 34.7157C79.6076 33.4931 82.377 32.7418 84.756 30.9225C86.0204 29.8617 87.0001 28.5023 87.6065 26.9673C88.9028 24.0726 89.6246 20.6035 91.1861 18.1287C93.9976 13.8029 97.9938 10.3768 102.698 8.25899C110.506 4.68674 119.469 4.46577 127.984 5.62952C135.033 6.59439 142.096 8.52415 147.952 12.5604C150.435 14.3497 152.762 16.3482 154.905 18.5338C160.156 23.6528 165.084 29.1769 172.022 31.0993C174.357 31.7548 177.104 32.1305 178.423 34.1633C179.741 36.1962 178.835 39.194 177.119 41.0353C175.403 42.8767 173.075 43.9815 171.072 45.5135C170.689 45.8597 170.166 46.3237 170.225 46.8909Z" fill="#3F3D56"/>
<path d="M80.16 62.1666C78.9078 64.3762 77.9503 67.0278 78.8489 69.4142C80.0421 68.7292 81.2501 68.0737 82.4212 67.4108L74.4665 79.4902C73.6931 75.3802 72.8461 71.3366 70.7837 67.293C69.8747 65.756 69.0819 64.1532 68.412 62.498C67.5503 59.9717 67.6755 57.2317 67.8449 54.5728C68.1837 48.894 68.6404 42.788 72.1832 38.3688C73.4843 36.7779 75.1422 35.5162 77.0223 34.686C77.5478 34.9378 78.0204 35.2878 78.4144 35.7172C80.2631 37.7353 80.7197 40.9614 81.471 43.4804C82.62 47.2883 84.5277 51.3541 83.5702 55.4051C82.9883 57.8725 81.3974 59.957 80.16 62.1666Z" fill="url(#paint5_linear)"/>
<path d="M163.876 54.8159C162.233 57.0255 162.322 59.7949 162.697 62.6086C162.852 63.7649 163.036 64.9213 163.206 66.0261C163.398 66.9518 163.331 67.9124 163.014 68.8029C162.945 68.958 162.861 69.106 162.764 69.2448C161.578 70.8579 159.081 70.3497 157.21 69.6868C152.599 68.0516 149.211 68.4788 146.162 67.7938C144.019 67.3077 142.023 66.3207 139.864 63.6839C139.776 63.587 139.668 63.5093 139.548 63.4556C137.809 62.1372 136.911 59.9643 135.953 57.9757C134.93 55.8691 133.515 53.6669 131.247 53.085C128.684 52.4221 126.091 53.085 123.462 52.9819C119.433 52.8051 115.36 52.3632 111.375 52.0612C109.165 51.8918 106.956 51.7371 104.901 52.5252C104.171 52.7945 103.501 53.2022 102.927 53.7258C102.05 53.5269 101.395 52.9009 101.071 51.5162C100.275 48.0176 101.579 43.1564 104.127 40.6595C106.676 38.1626 110.403 37.507 113.945 37.1609C121.48 36.4243 129.553 36.741 135.88 40.8804C138.782 42.7807 141.212 45.4028 144.298 46.9938C149.918 49.881 156.643 48.872 162.911 49.6306C163.972 49.7558 165.202 50.0725 165.599 51.1037C166.122 52.4074 164.745 53.6595 163.876 54.8159Z" fill="url(#paint6_linear)"/>
<path d="M111.662 72.567C110.85 70.949 109.678 69.5381 108.237 68.4424C102.654 63.8831 94.8909 61.8945 87.96 63.8758C86.6137 64.2382 85.33 64.8019 84.152 65.5477C82.2898 66.8833 80.7144 68.5789 79.5192 70.5342C71.9254 81.8181 69.3843 95.6799 68.3089 109.195C68.0659 112.26 68.3973 115.515 67.1452 118.321C56.6715 141.795 33.8533 171.294 34.1332 173.975C42.3162 180.825 56.5463 190.216 62.9911 190.451C66.6075 183.822 80.5577 136.05 83.4892 129.075C84.6455 126.335 86.6931 120.325 88.3872 117.879C92.9243 111.309 100.039 111.25 105.409 105.358C106.827 103.92 107.858 102.146 108.407 100.202C108.68 98.512 108.722 96.7923 108.532 95.0906C108.328 90.9578 108.692 86.8166 109.614 82.7829C110.38 79.3874 113.238 76.0877 111.662 72.567Z" fill="url(#paint7_linear)"/>
<path d="M131.203 72.567C132.019 70.9449 133.198 69.5333 134.65 68.4424C140.225 63.8831 147.996 61.8945 154.927 63.8758C156.271 64.2383 157.552 64.802 158.727 65.5477C160.591 66.8813 162.167 68.5773 163.36 70.5342C170.947 81.8107 173.488 95.6799 174.571 109.195C174.814 112.26 174.475 115.515 175.727 118.321C186.201 141.788 202.073 153.521 201.801 156.202C206.5 171.345 185.597 180.508 177.082 179.727C173.466 173.098 162.351 136.043 159.405 129.06C158.256 126.32 156.208 120.31 154.514 117.865C149.977 111.295 142.877 111.273 137.493 105.343C136.073 103.906 135.042 102.132 134.495 100.188C134.221 98.4973 134.179 96.7775 134.37 95.0759C134.57 90.9432 134.206 86.8024 133.287 82.7682C132.484 79.3874 129.649 76.0877 131.203 72.567Z" fill="url(#paint8_linear)"/>
<path d="M110.97 76.6619C110.97 76.6619 118.63 81.6778 128.934 76.2642V93.4331C128.934 93.4331 119.816 86.9588 111.89 93.4331L110.97 76.6619Z" fill="#4AC961"/>
<path d="M110.97 76.6619C110.97 76.6619 118.63 81.6778 128.934 76.2642V93.4331C128.934 93.4331 119.816 86.9588 111.89 93.4331L110.97 76.6619Z" fill="url(#paint9_linear)"/>
<path d="M76.5095 84.2559H75.6551C74.0036 84.2559 72.6647 85.5947 72.6647 87.2463V88.2995C72.6647 89.9511 74.0036 91.2899 75.6551 91.2899H76.5095C78.161 91.2899 79.4999 89.9511 79.4999 88.2995V87.2463C79.4999 85.5947 78.161 84.2559 76.5095 84.2559Z" fill="url(#paint10_linear)"/>
<path d="M164.09 84.2559H163.235C161.584 84.2559 160.245 85.5947 160.245 87.2463V88.2995C160.245 89.9511 161.584 91.2899 163.235 91.2899H164.09C165.741 91.2899 167.08 89.9511 167.08 88.2995V87.2463C167.08 85.5947 165.741 84.2559 164.09 84.2559Z" fill="url(#paint11_linear)"/>
<path d="M128.507 82.4366H112.163V87.6513H128.507V82.4366Z" fill="url(#paint12_linear)"/>
<path d="M95.3107 105.859C105.708 105.859 114.137 97.4301 114.137 87.0327C114.137 76.6353 105.708 68.2065 95.3107 68.2065C84.9133 68.2065 76.4846 76.6353 76.4846 87.0327C76.4846 97.4301 84.9133 105.859 95.3107 105.859Z" fill="url(#paint13_linear)"/>
<path d="M144.726 105.859C155.123 105.859 163.552 97.4301 163.552 87.0327C163.552 76.6353 155.123 68.2065 144.726 68.2065C134.328 68.2065 125.9 76.6353 125.9 87.0327C125.9 97.4301 134.328 105.859 144.726 105.859Z" fill="url(#paint14_linear)"/>
<path d="M119.639 76.4632H118.954C117.774 76.4632 116.818 77.4196 116.818 78.5992V79.682C116.818 80.8616 117.774 81.8179 118.954 81.8179H119.639C120.819 81.8179 121.775 80.8616 121.775 79.682V78.5992C121.775 77.4196 120.819 76.4632 119.639 76.4632Z" fill="url(#paint15_linear)"/>
<path d="M77.0347 84.2559H76.1803C74.5288 84.2559 73.1899 85.5947 73.1899 87.2462V88.2995C73.1899 89.951 74.5288 91.2899 76.1803 91.2899H77.0347C78.6863 91.2899 80.0251 89.951 80.0251 88.2995V87.2462C80.0251 85.5947 78.6863 84.2559 77.0347 84.2559Z" fill="#010101"/>
<path d="M163.397 84.2559H162.543C160.891 84.2559 159.552 85.5947 159.552 87.2462V88.2995C159.552 89.951 160.891 91.2899 162.543 91.2899H163.397C165.049 91.2899 166.388 89.951 166.388 88.2995V87.2462C166.388 85.5947 165.049 84.2559 163.397 84.2559Z" fill="url(#paint16_linear)"/>
<path d="M95.2003 103.509C104.202 103.509 111.5 96.2116 111.5 87.2094C111.5 78.2073 104.202 70.9097 95.2003 70.9097C86.1982 70.9097 78.9005 78.2073 78.9005 87.2094C78.9005 96.2116 86.1982 103.509 95.2003 103.509Z" fill="white"/>
<path d="M144.608 103.509C153.61 103.509 160.908 96.2116 160.908 87.2094C160.908 78.2073 153.61 70.9097 144.608 70.9097C135.606 70.9097 128.308 78.2073 128.308 87.2094C128.308 96.2116 135.606 103.509 144.608 103.509Z" fill="white"/>
<path d="M103.089 94.4055H85.7356V92.9987H101.674V76.397H103.089V94.4055Z" fill="url(#paint17_linear)"/>
<path d="M89.6982 84.4548H86.3617V91.916H89.6982V84.4548Z" fill="url(#paint18_linear)"/>
<path d="M94.3237 78.9675H90.9872V91.916H94.3237V78.9675Z" fill="url(#paint19_linear)"/>
<path d="M99.2071 81.6854H95.8705V91.916H99.2071V81.6854Z" fill="url(#paint20_linear)"/>
<path opacity="0.18" d="M145.256 77.8994C147.101 77.9328 148.895 78.5101 150.413 79.559C151.931 80.6079 153.105 82.0816 153.789 83.7954C154.472 85.5091 154.635 87.3866 154.255 89.1923C153.876 90.998 152.972 92.6515 151.657 93.9455C150.342 95.2394 148.674 96.1162 146.862 96.4659C145.05 96.8155 143.176 96.6224 141.473 95.9109C139.771 95.1993 138.317 94.0009 137.293 92.466C136.269 90.9312 135.721 89.1281 135.718 87.283C135.718 86.9663 135.718 86.657 135.769 86.3476L145.087 87.2683L145.256 77.8994Z" fill="#5EB3CE"/>
<path opacity="0.47" d="M144.372 77.0674H144.556L144.387 86.4215L135.062 85.5008C135.292 83.1911 136.372 81.0491 138.093 79.4908C139.813 77.9324 142.051 77.0687 144.372 77.0674Z" fill="#5EB3CE"/>
<path opacity="0.69" d="M154.919 18.5412C154.373 19.1973 153.75 19.7858 153.063 20.2942C148.21 23.8222 141.448 21.7672 135.88 19.5576C129.752 17.0681 123.55 14.5417 116.921 14.1219C110.292 13.7021 103.229 15.7938 99.2439 21.0528C96.9827 23.999 95.1561 28.3004 91.4218 28.5066C90.7119 28.5248 90.006 28.3961 89.3482 28.1287C88.6904 27.8613 88.0949 27.4608 87.5991 26.9525C88.8881 24.0579 89.6099 20.5888 91.1714 18.114C93.9844 13.7895 97.9802 10.3638 102.684 8.24425C110.498 4.69409 119.462 4.48049 127.969 5.63687C135.011 6.60175 142.081 8.5315 147.93 12.5678C150.427 14.3546 152.765 16.3531 154.919 18.5412Z" fill="url(#paint21_linear)"/>
<path opacity="0.69" d="M164.436 33.449C166.535 34.8632 169.142 35.2683 171.669 35.3788C172.593 35.3722 173.515 35.4886 174.408 35.7249C174.855 35.8462 175.266 36.0726 175.607 36.3853C175.948 36.698 176.208 37.0878 176.368 37.5221C176.429 38.067 176.576 38.5988 176.802 39.0983C176.854 39.1739 176.929 39.2307 177.016 39.2604C177.082 39.2604 177.148 39.2444 177.207 39.2136C177.266 39.1828 177.317 39.1382 177.355 39.0836C177.91 38.465 178.252 37.6834 178.327 36.8552C178.403 36.0271 178.209 35.1966 177.775 34.4876C176.662 32.7714 174.438 32.2779 172.486 31.6224C170.005 30.8189 167.673 29.612 165.585 28.0501C164.369 27.1368 161.563 25.2144 161.386 27.9617C161.246 30.1346 162.712 32.2926 164.436 33.449Z" fill="url(#paint22_linear)"/>
<path opacity="0.69" d="M98.4559 37.5074C99.3618 35.4525 100.378 33.3386 102.094 31.8802C104.149 30.1493 106.919 29.5748 109.563 29.1476C112.596 28.5645 115.681 28.2881 118.77 28.3227C124.801 28.6223 130.616 30.6696 135.504 34.2151C139.489 37.0361 143.606 40.8882 148.431 40.2179C152.585 42.2729 146.781 48.1358 145.249 47.5097C142.118 46.2208 135.725 40.2548 132.624 38.8922C126.526 36.2111 119.617 36.3879 112.958 36.8372C111.372 36.8384 109.802 37.1669 108.348 37.8021C106.971 38.6294 105.812 39.7733 104.967 41.1386C103.562 43.0164 102.525 45.1432 101.91 47.4066C101.49 49.1449 102.227 51.4724 99.9363 50.6916C94.7584 48.946 97.0343 40.8072 98.4559 37.5074Z" fill="url(#paint23_linear)"/>
<defs>
<linearGradient id="paint0_linear" x1="175.5" y1="125" x2="61" y2="201" gradientUnits="userSpaceOnUse">
<stop stop-color="#407472"/>
<stop offset="1" stop-color="#56B3A0"/>
</linearGradient>
<linearGradient id="paint1_linear" x1="98.2546" y1="138.476" x2="137.492" y2="134.117" gradientUnits="userSpaceOnUse">
<stop stop-color="#ECC4D7"/>
<stop offset="0.42" stop-color="#EFD4D1"/>
<stop offset="1" stop-color="#F2EAC9"/>
</linearGradient>
<linearGradient id="paint2_linear" x1="8773.56" y1="-17733.8" x2="10043.3" y2="-15016.6" gradientUnits="userSpaceOnUse">
<stop stop-color="#ECC4D7"/>
<stop offset="0.42" stop-color="#EFD4D1"/>
<stop offset="1" stop-color="#F2EAC9"/>
</linearGradient>
<linearGradient id="paint3_linear" x1="17379.8" y1="-71411" x2="18711" y2="-64162.1" gradientUnits="userSpaceOnUse">
<stop stop-color="#ECC4D7"/>
<stop offset="0.42" stop-color="#EFD4D1"/>
<stop offset="1" stop-color="#F2EAC9"/>
</linearGradient>
<linearGradient id="paint4_linear" x1="120.633" y1="118.962" x2="124.183" y2="-22.8602" gradientUnits="userSpaceOnUse">
<stop stop-opacity="0"/>
<stop offset="0.99"/>
</linearGradient>
<linearGradient id="paint5_linear" x1="3733.87" y1="39269.2" x2="2019.68" y2="38849.8" gradientUnits="userSpaceOnUse">
<stop stop-opacity="0"/>
<stop offset="0.99"/>
</linearGradient>
<linearGradient id="paint6_linear" x1="14969.8" y1="28760.5" x2="20684.1" y2="28760.5" gradientUnits="userSpaceOnUse">
<stop stop-opacity="0"/>
<stop offset="0.99"/>
</linearGradient>
<linearGradient id="paint7_linear" x1="10818.2" y1="-96005.9" x2="19079" y2="-96005.9" gradientUnits="userSpaceOnUse">
<stop stop-color="#ECC4D7"/>
<stop offset="0.42" stop-color="#EFD4D1"/>
<stop offset="1" stop-color="#F2EAC9"/>
</linearGradient>
<linearGradient id="paint8_linear" x1="255427" y1="-88749.6" x2="248441" y2="-88749.6" gradientUnits="userSpaceOnUse">
<stop stop-color="#ECC4D7"/>
<stop offset="0.42" stop-color="#EFD4D1"/>
<stop offset="1" stop-color="#F2EAC9"/>
</linearGradient>
<linearGradient id="paint9_linear" x1="4692.6" y1="14360.6" x2="4710.33" y2="13421.3" gradientUnits="userSpaceOnUse">
<stop stop-opacity="0"/>
<stop offset="0.99"/>
</linearGradient>
<linearGradient id="paint10_linear" x1="75.4999" y1="100.5" x2="167" y2="72.5" gradientUnits="userSpaceOnUse">
<stop stop-color="#5DF8BD"/>
<stop offset="1" stop-color="#56C4CD"/>
</linearGradient>
<linearGradient id="paint11_linear" x1="75.4999" y1="100.5" x2="167" y2="72.5" gradientUnits="userSpaceOnUse">
<stop stop-color="#5DF8BD"/>
<stop offset="1" stop-color="#56C4CD"/>
</linearGradient>
<linearGradient id="paint12_linear" x1="75.4999" y1="100.5" x2="167" y2="72.5" gradientUnits="userSpaceOnUse">
<stop stop-color="#5DF8BD"/>
<stop offset="1" stop-color="#56C4CD"/>
</linearGradient>
<linearGradient id="paint13_linear" x1="75.4999" y1="100.5" x2="167" y2="72.5" gradientUnits="userSpaceOnUse">
<stop stop-color="#5DF8BD"/>
<stop offset="1" stop-color="#56C4CD"/>
</linearGradient>
<linearGradient id="paint14_linear" x1="75.4999" y1="100.5" x2="167" y2="72.5" gradientUnits="userSpaceOnUse">
<stop stop-color="#5DF8BD"/>
<stop offset="1" stop-color="#56C4CD"/>
</linearGradient>
<linearGradient id="paint15_linear" x1="75.4999" y1="100.5" x2="167" y2="72.5" gradientUnits="userSpaceOnUse">
<stop stop-color="#5DF8BD"/>
<stop offset="1" stop-color="#56C4CD"/>
</linearGradient>
<linearGradient id="paint16_linear" x1="2293.62" y1="-5144.37" x2="2205.51" y2="-5141.85" gradientUnits="userSpaceOnUse">
<stop stop-opacity="0"/>
<stop offset="0.99"/>
</linearGradient>
<linearGradient id="paint17_linear" x1="86" y1="97.0001" x2="104.5" y2="78.0001" gradientUnits="userSpaceOnUse">
<stop stop-color="#5EB3CE"/>
<stop offset="1" stop-color="#67EDF8"/>
</linearGradient>
<linearGradient id="paint18_linear" x1="86" y1="97.0001" x2="104.5" y2="78.0001" gradientUnits="userSpaceOnUse">
<stop stop-color="#5EB3CE"/>
<stop offset="1" stop-color="#67EDF8"/>
</linearGradient>
<linearGradient id="paint19_linear" x1="86" y1="97.0001" x2="104.5" y2="78.0001" gradientUnits="userSpaceOnUse">
<stop stop-color="#5EB3CE"/>
<stop offset="1" stop-color="#67EDF8"/>
</linearGradient>
<linearGradient id="paint20_linear" x1="86" y1="97.0001" x2="104.5" y2="78.0001" gradientUnits="userSpaceOnUse">
<stop stop-color="#5EB3CE"/>
<stop offset="1" stop-color="#67EDF8"/>
</linearGradient>
<linearGradient id="paint21_linear" x1="17362.4" y1="-20199.6" x2="17352.5" y2="-23642.4" gradientUnits="userSpaceOnUse">
<stop offset="0.02" stop-color="white" stop-opacity="0"/>
<stop offset="0.58" stop-color="white" stop-opacity="0.39"/>
<stop offset="0.68" stop-color="white" stop-opacity="0.68"/>
<stop offset="1" stop-color="white"/>
</linearGradient>
<linearGradient id="paint22_linear" x1="5419.81" y1="-10578.6" x2="6331.43" y2="-10918.7" gradientUnits="userSpaceOnUse">
<stop offset="0.02" stop-color="white" stop-opacity="0"/>
<stop offset="0.58" stop-color="white" stop-opacity="0.39"/>
<stop offset="0.68" stop-color="white" stop-opacity="0.68"/>
<stop offset="1" stop-color="white"/>
</linearGradient>
<linearGradient id="paint23_linear" x1="11408" y1="-19164.2" x2="29682.1" y2="-15347.6" gradientUnits="userSpaceOnUse">
<stop offset="0.02" stop-color="white" stop-opacity="0"/>
<stop offset="0.58" stop-color="white" stop-opacity="0.39"/>
<stop offset="0.68" stop-color="white" stop-opacity="0.68"/>
<stop offset="1" stop-color="white"/>
</linearGradient>
</defs>
</svg>
