<svg width="232" height="206" viewBox="0 0 232 206" fill="none" xmlns="http://www.w3.org/2000/svg">
<path d="M170.302 90.3196H84.7151V163.943H170.302V90.3196Z" fill="#E6E6E6"/>
<path opacity="0.51" d="M158.595 101H97V153.992H158.595V101Z" fill="#A5A5A5"/>
<g opacity="0.4">
<path d="M140.661 117.217C141.421 118.2 142.065 119.267 142.578 120.398L128.004 131.143L121.913 127.324V122.73L128.004 126.549L140.661 117.217Z" fill="white"/>
<path d="M115.696 127C115.696 126.794 115.701 126.589 115.711 126.386L112.02 126.205C112.008 126.468 112 126.735 112 127.004C111.998 129.104 112.412 131.185 113.216 133.125C114.02 135.066 115.199 136.828 116.686 138.312L119.305 135.695C118.16 134.555 117.252 133.2 116.633 131.708C116.014 130.215 115.695 128.616 115.696 127Z" fill="white"/>
<path d="M128.001 114.696C128.207 114.696 128.411 114.703 128.615 114.713L128.8 111.02C128.535 111.008 128.269 111.002 128.001 111.002C125.899 110.999 123.818 111.412 121.876 112.216C119.934 113.02 118.171 114.199 116.686 115.687L119.305 118.305C120.445 117.16 121.8 116.252 123.292 115.632C124.785 115.013 126.385 114.695 128.001 114.696Z" fill="white"/>
<path d="M128.001 139.305C127.795 139.305 127.59 139.305 127.385 139.288L127.2 142.98C127.466 142.993 127.733 143 128.001 143C130.101 143.002 132.181 142.589 134.122 141.785C136.063 140.981 137.825 139.801 139.308 138.313L136.695 135.696C135.555 136.841 134.2 137.748 132.708 138.368C131.216 138.987 129.616 139.305 128.001 139.305Z" fill="white"/>
<path d="M134.936 116.843L138.047 114.55C135.204 112.247 131.654 110.994 127.996 111V114.695C130.473 114.692 132.893 115.441 134.936 116.843Z" fill="white"/>
<path d="M144 127C144.002 126.039 143.918 125.079 143.749 124.133L140.305 126.671C140.305 126.78 140.305 126.889 140.305 127C140.306 128.719 139.945 130.419 139.247 131.99C138.549 133.561 137.528 134.968 136.252 136.119L138.736 138.865C140.395 137.366 141.722 135.536 142.629 133.492C143.536 131.448 144.003 129.236 144 127Z" fill="white"/>
<path d="M128.001 139.305C126.281 139.305 124.581 138.945 123.01 138.246C121.439 137.548 120.032 136.528 118.88 135.251L116.136 137.734C117.634 139.394 119.465 140.721 121.509 141.628C123.553 142.535 125.764 143.003 128.001 143V139.305Z" fill="white"/>
<path d="M119.75 117.88L117.267 115.135C115.607 116.633 114.28 118.464 113.372 120.508C112.465 122.552 111.998 124.764 112 127L115.696 127C115.696 125.281 116.056 123.581 116.754 122.01C117.453 120.439 118.473 119.032 119.75 117.88Z" fill="white"/>
</g>
<path opacity="0.08" d="M147.82 163.786L135 164L135.698 147.046C135.769 145.329 136.497 143.7 137.74 142.481C138.982 141.263 140.648 140.544 142.408 140.466L153 140L147.82 163.786Z" fill="black"/>
<path opacity="0.45" d="M115.963 185.836C180.007 185.836 231.925 180.168 231.925 173.176C231.925 166.185 180.007 160.517 115.963 160.517C51.9183 160.517 0 166.185 0 173.176C0 180.168 51.9183 185.836 115.963 185.836Z" fill="#E6E6E6"/>
<path d="M147.026 161.624V169.276C147.026 172.744 156.671 175.574 168.593 175.602C180.515 175.63 190.174 172.843 190.189 169.375V161.723L147.026 161.624Z" fill="#FFD200"/>
<path opacity="0.46" d="M147.026 161.624V169.276C147.026 172.744 156.671 175.574 168.593 175.602C180.515 175.63 190.174 172.843 190.189 169.375V161.723L147.026 161.624Z" fill="white"/>
<path d="M190.193 161.72C190.201 158.254 180.545 155.422 168.626 155.395C156.708 155.368 147.039 158.156 147.031 161.622C147.023 165.089 156.679 167.921 168.598 167.948C180.517 167.975 190.186 165.187 190.193 161.72Z" fill="#FFD200"/>
<path d="M147.047 152.404V160.056C147.047 163.524 156.7 166.354 168.621 166.382C180.543 166.41 190.203 163.616 190.217 160.148V152.503L147.047 152.404Z" fill="#FFD200"/>
<path opacity="0.46" d="M147.047 152.404V160.056C147.047 163.524 156.7 166.354 168.621 166.382C180.543 166.41 190.203 163.616 190.217 160.148V152.503L147.047 152.404Z" fill="white"/>
<path d="M190.215 152.501C190.223 149.034 180.567 146.202 168.648 146.175C156.729 146.148 147.06 148.936 147.053 152.403C147.045 155.869 156.701 158.701 168.62 158.728C180.538 158.755 190.207 155.967 190.215 152.501Z" fill="#FFD200"/>
<path d="M148.636 143.262V150.914C148.636 154.382 158.281 157.212 170.203 157.24C182.125 157.269 191.791 154.482 191.798 151.014V143.361L148.636 143.262Z" fill="#FFD200"/>
<path opacity="0.46" d="M148.636 143.262V150.914C148.636 154.382 158.281 157.212 170.203 157.24C182.125 157.269 191.791 154.482 191.798 151.014V143.361L148.636 143.262Z" fill="white"/>
<path d="M191.8 143.36C191.808 139.893 182.152 137.061 170.233 137.034C158.314 137.007 148.645 139.795 148.638 143.262C148.63 146.728 158.286 149.56 170.204 149.587C182.123 149.614 191.792 146.826 191.8 143.36Z" fill="#FFD200"/>
<path d="M147.09 134.035V141.688C147.09 145.156 156.742 147.992 168.657 148.014C180.572 148.035 190.245 145.255 190.252 141.787V134.134L147.09 134.035Z" fill="#FFD200"/>
<path opacity="0.46" d="M147.09 134.035V141.688C147.09 145.156 156.742 147.992 168.657 148.014C180.572 148.035 190.245 145.255 190.252 141.787V134.134L147.09 134.035Z" fill="white"/>
<path d="M189.798 133.759C189.798 130.292 180.136 127.482 168.217 127.482C156.298 127.482 146.636 130.292 146.636 133.759C146.636 137.225 156.298 140.035 168.217 140.035C180.136 140.035 189.798 137.225 189.798 133.759Z" fill="#FFD200"/>
<path opacity="0.58" d="M30.4675 162.801C30.4675 162.801 24.4251 161.155 23.113 155.531C23.113 155.531 32.4675 153.645 32.737 163.297L30.4675 162.801Z" fill="#45837D"/>
<path opacity="0.73" d="M31.2053 162.205C31.2053 162.205 26.95 155.531 30.7017 149.297C30.7017 149.297 37.7938 153.815 34.652 162.219L31.2053 162.205Z" fill="#45837D"/>
<path d="M32.2974 162.212C32.2974 162.212 34.5243 155.163 41.2618 153.829C41.2618 153.829 42.5242 158.404 36.9001 162.226L32.2974 162.212Z" fill="#45837D"/>
<path d="M27.9146 162.049L29.1344 170.425L36.8506 170.46L37.9853 162.092L27.9146 162.049Z" fill="#24285B"/>
<path opacity="0.08" d="M114.218 86.7808C114.218 86.7808 107.36 94.5182 101.027 100.639C94.6937 106.759 93.3603 163.95 93.3603 163.95H84.7151V127.135L83.708 103.851L86.2186 92.036L114.218 86.7808Z" fill="black"/>
<path d="M89.7432 163.95V170.56H96.7076L100.239 163.95H89.7432Z" fill="#A5A5A5"/>
<path d="M145.09 85.0928H108.757V90.3196H145.09V85.0928Z" fill="#A5A5A5"/>
<path d="M77.9067 41.2849C77.9067 41.2849 66.3537 48.377 72.6231 54.4904C78.8925 60.6038 84.1193 49.7245 84.1193 49.7245L83.7931 40.8381L77.9067 41.2849Z" fill="#24285B"/>
<path d="M76.6796 49.5828C76.6796 49.5828 67.0415 45.4694 62.4529 56.3699C59.6515 63.0294 75.6726 79.8448 58.2828 78.398C45.517 77.3342 42.7582 65.4053 43.2688 59.1288C43.4466 57.3057 43.1271 55.4686 42.3441 53.8127C41.5611 52.1568 40.3439 50.744 38.8221 49.7247C37.633 48.8815 36.1815 48.4916 34.7299 48.6254C29.6591 49.2495 37.6306 56.4905 37.6306 56.4905C37.6306 56.4905 34.9853 91.3339 59.3891 93.2701C83.793 95.2062 83.9065 71.0577 76.6796 49.5828Z" fill="#F4A28C"/>
<path d="M76.2115 49.5046L84.9986 51.0862C84.9986 51.0862 114.573 61.2208 93.3744 90.3125C89.7217 95.3501 87.2736 101.159 86.2185 107.291L62.9352 103.851L62.538 99.4897C62.0685 93.5131 60.3172 87.7078 57.4033 82.4687C53.7154 75.9652 51.8999 63.6534 76.2115 49.5046Z" fill="#4E9C8F"/>
<path d="M78.779 33.7178C78.779 33.7178 77.3606 37.5759 77.318 40.3773C77.3095 40.6518 77.3559 40.9253 77.4545 41.1817C77.553 41.4381 77.7018 41.6723 77.892 41.8704C78.0823 42.0686 78.3101 42.2268 78.5623 42.3357C78.8145 42.4447 79.0858 42.5022 79.3605 42.5049C80.2351 42.5698 81.1098 42.38 81.8788 41.9584C82.6479 41.5367 83.2783 40.9014 83.6938 40.129L85.8214 36.9943C86.1876 36.3177 86.3325 35.5433 86.2358 34.7801C86.1391 34.0168 85.8057 33.3031 85.2824 32.7391C83.5023 30.5193 79.5236 31.3278 78.779 33.7178Z" fill="#F4A28C"/>
<path opacity="0.18" d="M85.1973 64.1074C85.1973 64.1074 79.8499 69.3768 84.1902 79.1994C88.5306 89.0219 78.4102 94.0928 78.4102 94.0928L72.2826 105.234L86.2186 107.298C86.2186 107.298 87.637 97.9863 91.3532 93.3836C95.0695 88.7808 103.502 85.1 103.502 85.1L101.027 75.5044L85.1973 64.1074Z" fill="black"/>
<path d="M85.4311 37.5261L83.9914 50.9018L76.6794 49.5827L80.6652 40.3771L85.4311 37.5261Z" fill="#F4A28C"/>
<path d="M82.0839 38.2496C82.0839 38.2496 82.5307 36.7319 83.6441 37.1645C84.7576 37.5971 84.1264 39.7886 82.5165 39.5687L82.0839 38.2496Z" fill="#F4A28C"/>
<path d="M78.013 36.1929L76.4953 37.4198C76.4106 37.4907 76.3449 37.5815 76.304 37.684C76.2631 37.7866 76.2483 37.8977 76.261 38.0074C76.2736 38.1171 76.3133 38.2219 76.3765 38.3124C76.4397 38.403 76.5244 38.4764 76.623 38.5262L78.0414 39.2354L78.013 36.1929Z" fill="#F4A28C"/>
<path opacity="0.31" d="M79.7081 42.3558C80.6584 42.3743 81.5932 42.1129 82.396 41.604C82.396 41.604 81.6514 43.9515 78.4103 45.5898L79.7081 42.3558Z" fill="#CE8172"/>
<path d="M80.1832 27.7886C79.5851 28.015 79.0509 28.3832 78.6265 28.8616C78.2021 29.34 77.9002 29.9143 77.7468 30.5351C77.5933 31.156 77.5929 31.8048 77.7455 32.4258C77.8981 33.0469 78.1992 33.6216 78.623 34.1005C79.3264 34.9052 80.1435 35.6028 81.0485 36.1714C84.8144 38.6324 75.4244 55.7952 85.0697 56.7881C94.7149 57.781 93.4738 52.9159 90.9419 47.9727C88.4101 43.0295 89.3178 36.136 89.1122 32.3701C88.9632 29.6538 83.7435 26.5546 80.1832 27.7886Z" fill="#24285B"/>
<path d="M86.2967 61.5188C86.8852 60.558 87.6749 59.7362 88.6114 59.1097C89.5479 58.4833 90.609 58.0671 91.7217 57.8899C92.8343 57.7126 93.9722 57.7785 95.057 58.0829C96.1418 58.3874 97.1477 58.9232 98.0057 59.6535C104.786 65.3272 112.949 76.6036 114.608 83.951C117.02 94.6317 77.1691 97.2558 77.1691 97.2558C77.1691 97.2558 78.3606 102.071 72.7082 102.795C68.9707 103.27 71.2402 99.0146 73.2118 96.0643C74.3455 94.3704 75.9298 93.0268 77.7861 92.185L97.8426 83.0574C97.8426 83.0574 79.7436 72.5115 86.2967 61.5188Z" fill="#F4A28C"/>
<path d="M39.6661 58.0151C48.8237 58.0151 56.2474 50.5914 56.2474 41.4338C56.2474 32.2762 48.8237 24.8525 39.6661 24.8525C30.5085 24.8525 23.0848 32.2762 23.0848 41.4338C23.0848 50.5914 30.5085 58.0151 39.6661 58.0151Z" fill="#FFD200"/>
<path opacity="0.46" d="M39.6661 58.0151C48.8237 58.0151 56.2474 50.5914 56.2474 41.4338C56.2474 32.2762 48.8237 24.8525 39.6661 24.8525C30.5085 24.8525 23.0848 32.2762 23.0848 41.4338C23.0848 50.5914 30.5085 58.0151 39.6661 58.0151Z" fill="white"/>
<path d="M39.8223 52.9585C48.9799 52.9585 56.4036 45.5348 56.4036 36.3772C56.4036 27.2196 48.9799 19.7959 39.8223 19.7959C30.6647 19.7959 23.241 27.2196 23.241 36.3772C23.241 45.5348 30.6647 52.9585 39.8223 52.9585Z" fill="#FFD200"/>
<path opacity="0.6" fill-rule="evenodd" clip-rule="evenodd" d="M53.137 26.4932L39.0739 37.392L32 32.7306V38.3385L39.0739 42.9999L55.3028 30.424C54.7588 29.0101 54.0266 27.6896 53.137 26.4932Z" fill="white"/>
<path d="M187.401 31.1716H129.274V63.7314H187.401V31.1716Z" fill="url(#paint0_linear)"/>
<path d="M187.401 31.1716H129.274V63.7314H187.401V31.1716Z" fill="black" fill-opacity="0.4"/>
<path d="M162.097 39.9587H138.991V45.1714H162.097V39.9587Z" fill="white"/>
<path d="M46.9993 132.589L63.1834 166.382L66.7224 164.68L58.6232 134.78L46.9993 132.589Z" fill="#F4A28C"/>
<path d="M72.2826 115.816L77.162 168.822H81.9562L84.1902 115.816H72.2826Z" fill="#F4A28C"/>
<path opacity="0.49" d="M162.097 49.2209H138.991V54.4336H162.097V49.2209Z" fill="white"/>
<path d="M167.231 41.7812H179.075L173.153 53.3697L167.231 41.7812Z" fill="#66EAF6"/>
<path d="M62.9423 103.851L46.9993 132.588L84.1193 139.581L86.2185 107.291L62.9423 103.851Z" fill="#24285B"/>
<path d="M62.3609 164.616C62.3609 164.616 61.7652 167.545 59.6021 168.503C57.439 169.46 58.6305 172.609 61.8786 170.588C62.8829 169.96 63.8319 169.249 64.7155 168.46C65.7721 167.705 66.9833 167.194 68.2615 166.964C68.4645 166.913 68.6473 166.802 68.7854 166.645C68.9235 166.488 69.0105 166.292 69.0346 166.084C69.4317 164.467 66.1977 162.673 66.1977 162.673L62.3609 164.616Z" fill="#45837D"/>
<path d="M77.2399 166.936C77.2399 166.936 75.4669 169.347 73.0981 169.311C70.7294 169.276 70.4953 172.63 74.2896 172.148C75.4683 172.011 76.6332 171.773 77.7718 171.439C79.05 171.204 80.3641 171.25 81.6228 171.574C81.8284 171.612 82.0408 171.587 82.2319 171.502C82.4231 171.417 82.5841 171.277 82.6937 171.099C83.7291 169.794 82.0412 166.787 82.0412 166.787L77.2399 166.936Z" fill="#45837D"/>
<defs>
<linearGradient id="paint0_linear" x1="129" y1="28" x2="191" y2="67.5" gradientUnits="userSpaceOnUse">
<stop stop-color="#5DF7BE"/>
<stop offset="1" stop-color="#56C3CE"/>
</linearGradient>
</defs>
</svg>
