<svg width="88" height="88" viewBox="0 0 88 88" fill="none" xmlns="http://www.w3.org/2000/svg">
<g opacity="0.05">
<path d="M78.8182 17.0969C80.9084 19.7993 82.6779 22.7352 84.0907 25.8457L44.0107 55.392L27.2603 44.8914V32.2587L44.0107 42.7593L78.8182 17.0969Z" fill="black"/>
<path d="M10.1651 44C10.1651 43.4332 10.1789 42.8701 10.2066 42.3102L0.0552857 41.8127C0.020734 42.5383 1.22674e-05 43.2709 1.22674e-05 44.0103C-0.00430682 49.7871 1.13191 55.5076 3.34353 60.844C5.55512 66.1807 8.79856 71.028 12.8878 75.1079L20.0883 67.9106C16.9406 64.7755 14.4435 61.049 12.7405 56.9457C11.0376 52.8423 10.1623 48.4427 10.1651 44Z" fill="black"/>
<path d="M44.0015 10.163C44.5681 10.163 45.1311 10.1837 45.6909 10.2114L46.1988 0.0562545C45.4711 0.0217015 44.7385 0.00442717 44.0015 0.00442717C38.2222 -0.00262079 32.4988 1.132 27.1594 3.34315C21.8199 5.5543 16.9699 8.79843 12.8877 12.8892L20.0882 20.0901C23.2234 16.9412 26.9501 14.4431 31.054 12.7394C35.1579 11.0358 39.5579 10.1602 44.0015 10.163Z" fill="black"/>
<path d="M44.0015 77.8378C43.4349 77.8378 42.8716 77.8378 42.3086 77.7929L41.8007 87.9445C42.5308 87.9814 43.2645 88 44.0015 88C49.7784 88.0059 55.4991 86.8705 60.8356 84.6588C66.1722 82.447 71.0191 79.2024 75.0982 75.1116L67.9114 67.9143C64.7757 71.0615 61.0494 73.5582 56.9463 75.2612C52.8432 76.9642 48.444 77.84 44.0015 77.8378Z" fill="black"/>
<path d="M63.0743 16.0672L71.6293 9.76127C63.8099 3.42931 54.0494 -0.0175769 43.9878 6.7404e-05V10.1621C50.801 10.1536 57.4561 12.2127 63.0743 16.0672Z" fill="black"/>
<path d="M87.9999 44C88.0054 41.3564 87.7742 38.7174 87.3088 36.115L77.8383 43.0947C77.8383 43.3955 77.8383 43.696 77.8383 44C77.8408 48.7278 76.8497 53.4034 74.9297 57.7237C73.0094 62.0439 70.2028 65.9124 66.6919 69.0785L73.5228 76.6285C78.0873 72.5076 81.7347 67.4736 84.2287 61.8529C86.7229 56.2318 88.0076 50.1494 87.9999 44Z" fill="black"/>
<path d="M44.0018 77.8377C39.2738 77.8394 34.5981 76.8479 30.2774 74.9278C25.957 73.0077 22.0879 70.2013 18.9207 66.6909L11.3746 73.5186C15.4948 78.0839 20.5284 81.7321 26.1492 84.2269C31.7699 86.7214 37.8522 88.0069 44.0018 87.9996V77.8377Z" fill="black"/>
<path d="M21.3115 18.9212L14.4841 11.3713C9.91832 15.4913 6.26951 20.5251 3.77428 26.146C1.27908 31.767 -0.00680279 37.8497 2.70648e-05 43.9996H10.1651C10.163 39.2721 11.1542 34.5965 13.0743 30.2762C14.9945 25.9561 17.8008 22.0875 21.3115 18.9212Z" fill="black"/>
</g>
</svg>
