<svg width="418" height="312" viewBox="0 0 418 312" fill="none" xmlns="http://www.w3.org/2000/svg">
<path opacity="0.58" d="M91.7953 153.595C91.7953 153.595 61.9376 145.535 55.4315 117.822C55.4315 117.822 101.716 108.512 103.026 156.04L91.7953 153.595Z" fill="#68E1FD"/>
<path opacity="0.73" d="M95.4668 150.626C95.4668 150.626 74.5988 117.794 92.9562 87.0988C92.9562 87.0988 128.146 109.345 112.515 150.693L95.4668 150.626Z" fill="#68E1FD"/>
<path d="M100.839 150.626C100.839 150.626 111.867 115.954 145.194 109.385C145.194 109.385 151.443 131.9 123.597 150.72L100.839 150.626Z" fill="#68E1FD"/>
<path d="M79.1747 149.901L85.2353 191.115L123.367 191.276L128.983 150.102L79.1747 149.901Z" fill="#24285B"/>
<path d="M272.845 94.2056C272.845 94.2056 296.089 137.999 301.583 184.72C307.076 231.442 292.66 263.709 213.184 258.376C133.707 253.043 114.472 220.588 129.023 177.493C143.574 134.399 207.15 82.5319 207.15 82.5319L272.845 94.2056Z" fill="#24285B"/>
<path d="M272.845 94.2052C272.845 94.2052 313.596 68.6815 302.878 50.2508C292.161 31.82 266.11 36.1994 252.598 29.5901C239.086 22.9808 166.642 11.2937 207.15 82.5583L272.845 94.2052Z" fill="#24285B"/>
<path d="M267.27 83.8347C267.27 83.8347 226.276 76.1105 191.802 77.3061" stroke="#FFD200" stroke-width="3" stroke-linecap="round" stroke-linejoin="round"/>
<path d="M205.071 82.2767C205.071 82.2767 188.253 33.9161 161.742 56.565C135.232 79.2139 203.438 82.2767 203.438 82.2767C203.438 82.2767 136.339 98.3297 167.897 124.928C199.456 151.526 205.071 82.2767 205.071 82.2767Z" stroke="#FFD200" stroke-width="3" stroke-linecap="round" stroke-linejoin="round"/>
<path d="M302.932 49.3645C302.932 49.3645 310.68 64.0339 294.172 66.022C277.664 68.0102 264.112 52.911 250.978 56.2693C237.845 59.6277 199.685 65.7534 194.84 47.7122C189.994 29.671 213.278 21.1273 228.76 23.3438C244.243 25.5604 298.694 32.1696 302.932 49.3645Z" fill="url(#paint0_linear)"/>
<path opacity="0.45" d="M209.228 289.005C314.356 289.005 399.578 276.669 399.578 261.453C399.578 246.236 314.356 233.901 209.228 233.901C104.101 233.901 18.8785 246.236 18.8785 261.453C18.8785 276.669 104.101 289.005 209.228 289.005Z" fill="#E6E6E6"/>
<path d="M264.949 222.804V239.26C264.949 246.716 244.053 252.694 218.299 252.694C192.545 252.694 171.677 246.582 171.69 239.126V222.67L264.949 222.804Z" fill="#FFD200"/>
<path d="M264.922 242.646V259.088C264.922 266.544 244.027 272.522 218.272 272.522C192.518 272.522 171.65 266.396 171.663 258.94V242.484L264.922 242.646Z" fill="#FFD200"/>
<path opacity="0.08" d="M264.922 242.646V259.088C264.922 266.544 244.027 272.522 218.272 272.522C192.518 272.522 171.65 266.396 171.663 258.94V242.484L264.922 242.646Z" fill="black"/>
<path d="M264.044 242.113C264.057 234.724 243.381 228.697 217.864 228.653C192.346 228.609 171.649 234.563 171.636 241.953C171.623 249.342 192.299 255.368 217.817 255.413C243.334 255.457 264.031 249.503 264.044 242.113Z" fill="#FFD200"/>
<path opacity="0.08" d="M264.949 222.804V239.26C264.949 246.716 244.053 252.694 218.299 252.694C192.545 252.694 171.677 246.582 171.69 239.126V222.67L264.949 222.804Z" fill="black"/>
<path d="M261.588 203.138V219.594C261.588 227.049 240.693 233.027 214.938 233.027C189.184 233.027 168.316 226.915 168.329 219.459V203.003L261.588 203.138Z" fill="#FFD200"/>
<path d="M265.016 183.323V199.779C265.016 207.235 244.108 213.213 218.353 213.213C192.599 213.213 171.744 207.087 171.744 199.631V183.175L265.016 183.323Z" fill="#FFD200"/>
<path d="M264.071 222.466C264.084 215.076 243.408 209.05 217.891 209.006C192.373 208.961 171.676 214.916 171.663 222.305C171.65 229.695 192.326 235.721 217.844 235.765C243.361 235.809 264.058 229.855 264.071 222.466Z" fill="#FFD200"/>
<path opacity="0.08" d="M261.588 203.138V219.594C261.588 227.049 240.693 233.027 214.938 233.027C189.184 233.027 168.316 226.915 168.329 219.459V203.003L261.588 203.138Z" fill="black"/>
<path d="M260.758 202.98C260.771 195.591 240.095 189.565 214.578 189.52C189.06 189.476 168.363 195.43 168.35 202.82C168.338 210.209 189.013 216.235 214.531 216.28C240.049 216.324 260.745 210.37 260.758 202.98Z" fill="#FFD200"/>
<path opacity="0.08" d="M265.016 183.323V199.779C265.016 207.235 244.108 213.213 218.353 213.213C192.599 213.213 171.744 207.087 171.744 199.631V183.175L265.016 183.323Z" fill="black"/>
<path d="M265.03 183.334C265.043 175.944 244.168 169.918 218.404 169.873C192.641 169.828 171.745 175.782 171.732 183.172C171.719 190.561 192.594 196.588 218.358 196.632C244.121 196.677 265.017 190.723 265.03 183.334Z" fill="#FFD200"/>
<path d="M373.271 219.473V237.89C373.271 246.232 349.879 252.962 321.047 252.909C292.215 252.855 268.863 246.058 268.877 237.715V219.298L373.271 219.473Z" fill="#FFD200"/>
<path d="M373.244 241.665V260.082C373.244 268.424 349.852 275.154 321.033 275.101C292.215 275.047 268.836 268.25 268.85 259.907V241.49L373.244 241.665Z" fill="#FFD200"/>
<path opacity="0.08" d="M373.244 241.665V260.082C373.244 268.424 349.852 275.154 321.033 275.101C292.215 275.047 268.836 268.25 268.85 259.907V241.49L373.244 241.665Z" fill="black"/>
<path d="M372.262 241.06C372.276 232.787 349.136 226.041 320.577 225.992C292.018 225.942 268.854 232.608 268.84 240.88C268.825 249.152 291.965 255.899 320.525 255.948C349.084 255.998 372.247 249.332 372.262 241.06Z" fill="#FFD200"/>
<path opacity="0.08" d="M373.271 219.473V237.89C373.271 246.232 349.879 252.962 321.047 252.909C292.215 252.855 268.863 246.058 268.877 237.715V219.298L373.271 219.473Z" fill="black"/>
<path d="M369.518 197.455V215.872C369.518 224.215 346.113 230.945 317.294 230.891C288.476 230.837 265.111 224.04 265.124 215.698V197.28L369.518 197.455Z" fill="#FFD200"/>
<path d="M373.352 175.263V193.68C373.352 202.023 349.946 208.753 321.128 208.713C292.309 208.672 268.944 201.848 268.958 193.506V175.089L373.352 175.263Z" fill="#FFD200"/>
<path d="M372.302 219.084C372.317 210.812 349.177 204.066 320.618 204.016C292.058 203.967 268.895 210.632 268.88 218.905C268.866 227.177 292.006 233.923 320.565 233.973C349.124 234.023 372.288 227.357 372.302 219.084Z" fill="#FFD200"/>
<path opacity="0.08" d="M369.518 197.455V215.872C369.518 224.215 346.113 230.945 317.294 230.891C288.476 230.837 265.111 224.04 265.124 215.698V197.28L369.518 197.455Z" fill="black"/>
<path d="M368.571 197.27C368.585 188.998 345.445 182.252 316.886 182.202C288.327 182.153 265.163 188.818 265.148 197.091C265.134 205.363 288.274 212.109 316.833 212.159C345.392 212.209 368.556 205.543 368.571 197.27Z" fill="#FFD200"/>
<path opacity="0.08" d="M373.352 175.263V193.68C373.352 202.023 349.946 208.753 321.128 208.713C292.309 208.672 268.944 201.848 268.958 193.506V175.089L373.352 175.263Z" fill="black"/>
<path d="M373.383 175.283C373.398 167.01 350.034 160.264 321.199 160.214C292.364 160.164 268.977 166.829 268.962 175.101C268.948 183.374 292.312 190.12 321.147 190.17C349.982 190.22 373.369 183.555 373.383 175.283Z" fill="#FFD200"/>
<path d="M281.889 151.795V170.212C281.889 178.568 305.281 185.285 334.113 185.244C362.945 185.204 386.296 178.393 386.283 170.037V151.62L281.889 151.795Z" fill="#FFD200"/>
<path d="M278.069 129.616V148.033C278.069 156.376 301.461 163.106 330.293 163.052C359.125 162.998 382.476 156.201 382.463 147.859V129.428L278.069 129.616Z" fill="#FFD200"/>
<path opacity="0.08" d="M281.889 151.795V170.212C281.889 178.568 305.281 185.285 334.113 185.244C362.945 185.204 386.296 178.393 386.283 170.037V151.62L281.889 151.795Z" fill="black"/>
<path d="M334.592 166.449C363.151 166.399 386.291 159.653 386.277 151.381C386.262 143.108 363.099 136.442 334.539 136.492C305.98 136.542 282.84 143.288 282.855 151.56C282.869 159.832 306.033 166.498 334.592 166.449Z" fill="#FFD200"/>
<path opacity="0.08" d="M278.069 129.616V148.033C278.069 156.376 301.461 163.106 330.293 163.052C359.125 162.998 382.476 156.201 382.463 147.859V129.428L278.069 129.616Z" fill="black"/>
<path d="M330.301 144.479C359.136 144.429 382.5 137.682 382.486 129.41C382.471 121.138 359.084 114.472 330.249 114.522C301.414 114.572 278.05 121.319 278.065 129.591C278.079 137.864 301.466 144.529 330.301 144.479Z" fill="#FFD200"/>
<path d="M163.335 218.089V236.507C163.335 244.849 139.943 251.579 111.111 251.539C82.279 251.498 58.8328 244.661 58.8463 236.332V217.915L163.335 218.089Z" fill="#FFD200"/>
<path d="M163.24 240.282V258.699C163.24 267.054 139.848 273.771 111.03 273.731C82.2114 273.691 58.8462 266.88 58.8597 258.524V240.107L163.24 240.282Z" fill="#FFD200"/>
<path opacity="0.08" d="M163.24 240.282V258.699C163.24 267.054 139.848 273.771 111.03 273.731C82.2114 273.691 58.8462 266.88 58.8597 258.524V240.107L163.24 240.282Z" fill="black"/>
<path d="M162.243 239.687C162.258 231.415 139.118 224.668 110.558 224.619C81.9992 224.569 58.8356 231.235 58.8211 239.507C58.8066 247.779 81.9466 254.526 110.506 254.575C139.065 254.625 162.229 247.959 162.243 239.687Z" fill="#FFD200"/>
<path opacity="0.08" d="M163.335 218.089V236.507C163.335 244.849 139.943 251.579 111.111 251.539C82.279 251.498 58.8328 244.661 58.8463 236.332V217.915L163.335 218.089Z" fill="black"/>
<path d="M159.515 196.072V214.489C159.515 222.845 136.123 229.561 107.291 229.521C78.4592 229.481 55.1075 222.67 55.121 214.314V195.897L159.515 196.072Z" fill="#FFD200"/>
<path d="M163.335 173.893V192.27C163.335 200.612 139.943 207.342 111.111 207.288C82.279 207.235 58.9273 200.437 58.9408 192.095V173.678L163.335 173.893Z" fill="#FFD200"/>
<path d="M162.284 217.711C162.298 209.439 139.158 202.693 110.599 202.643C82.0397 202.594 58.8761 209.259 58.8616 217.532C58.8471 225.804 81.9872 232.55 110.546 232.6C139.106 232.649 162.269 225.984 162.284 217.711Z" fill="#FFD200"/>
<path opacity="0.08" d="M159.515 196.072V214.489C159.515 222.845 136.123 229.561 107.291 229.521C78.4592 229.481 55.1075 222.67 55.121 214.314V195.897L159.515 196.072Z" fill="black"/>
<path d="M158.565 195.884C158.58 187.612 135.44 180.866 106.881 180.816C78.3213 180.767 55.1577 187.433 55.1432 195.705C55.1287 203.977 78.2688 210.723 106.828 210.773C135.387 210.823 158.551 204.157 158.565 195.884Z" fill="#FFD200"/>
<path opacity="0.08" d="M163.335 173.893V192.27C163.335 200.612 139.943 207.342 111.111 207.288C82.279 207.235 58.9273 200.437 58.9408 192.095V173.678L163.335 173.893Z" fill="black"/>
<path opacity="0.08" d="M161.283 277.183C182.686 277.183 200.036 259.916 200.036 238.616C200.036 217.315 182.686 200.048 161.283 200.048C139.881 200.048 122.53 217.315 122.53 238.616C122.53 259.916 139.881 277.183 161.283 277.183Z" fill="black"/>
<path opacity="0.08" d="M135.515 200.008C135.515 200.008 94.9403 212.326 101.46 273.462C101.46 273.462 127.903 274.349 140.456 271.138C151.686 268.277 135.515 200.008 135.515 200.008Z" fill="black"/>
<path d="M163.351 173.91C163.366 165.638 140.002 158.891 111.167 158.841C82.3319 158.791 58.9447 165.456 58.9302 173.729C58.9157 182.001 82.2794 188.748 111.114 188.798C139.949 188.848 163.337 182.182 163.351 173.91Z" fill="#FFD200"/>
<path d="M161.283 277.183C182.686 277.183 200.036 259.916 200.036 238.616C200.036 217.315 182.686 200.048 161.283 200.048C139.881 200.048 122.53 217.315 122.53 238.616C122.53 259.916 139.881 277.183 161.283 277.183Z" fill="#FFD200"/>
<g opacity="0.08">
<path opacity="0.08" d="M163.173 265.563C184.576 265.563 201.926 248.296 201.926 226.995C201.926 205.695 184.576 188.428 163.173 188.428C141.77 188.428 124.42 205.695 124.42 226.995C124.42 248.296 141.77 265.563 163.173 265.563Z" fill="black"/>
</g>
<path opacity="0.08" d="M161.283 277.183C182.686 277.183 200.036 259.916 200.036 238.616C200.036 217.315 182.686 200.048 161.283 200.048C139.881 200.048 122.53 217.315 122.53 238.616C122.53 259.916 139.881 277.183 161.283 277.183Z" fill="black"/>
<path d="M163.173 265.563C184.576 265.563 201.926 248.296 201.926 226.995C201.926 205.695 184.576 188.428 163.173 188.428C141.77 188.428 124.42 205.695 124.42 226.995C124.42 248.296 141.77 265.563 163.173 265.563Z" fill="#FFD200"/>
<path fill-rule="evenodd" clip-rule="evenodd" d="M194.458 204.23L161.803 228.382L145.828 218.336V230.422L161.803 240.468L199.216 212.799C197.995 209.73 196.389 206.854 194.458 204.23Z" fill="#EBC200"/>
<path d="M116.51 41.9893C116.51 41.9893 113.392 53.757 104.079 59.3454C104.079 59.3454 113.622 57.8811 121.775 69.5414C121.775 69.5414 124.272 59.0229 132.006 52.1584C132.006 52.1584 120.425 52.0241 116.51 41.9893Z" fill="#E6E6E6"/>
<path d="M370.342 78.3001C370.342 78.3001 360.596 85.6751 349.811 84.372C349.811 84.372 358.234 89.0603 357.451 103.179C357.451 103.179 365.928 96.4622 376.254 95.7502C376.254 95.8174 367.156 88.617 370.342 78.3001Z" fill="#E6E6E6"/>
<path d="M335.8 46.0999C335.8 46.0999 328.255 51.8091 319.899 50.8016C319.899 50.8016 326.419 54.4286 325.811 65.4172C330.06 62.2261 335.098 60.2393 340.389 59.6677C340.389 59.6677 333.411 54.0928 335.8 46.0999Z" fill="#E6E6E6"/>
<defs>
<linearGradient id="paint0_linear" x1="193.89" y1="62.3721" x2="312.997" y2="44.9081" gradientUnits="userSpaceOnUse">
<stop stop-color="#5EB3CE"/>
<stop offset="1" stop-color="#67EDF8"/>
</linearGradient>
</defs>
</svg>
