<svg width="334" height="252" viewBox="0 0 334 252" fill="none" xmlns="http://www.w3.org/2000/svg">
<path d="M76.8199 59.4554C65.9649 55.4933 52.5131 65.106 46.7599 80.9209C41.0068 96.7358 45.0899 112.768 55.9449 116.73C56.8093 117.042 57.7011 117.272 58.6086 117.415C60.8965 125.457 68.7789 123.267 68.7789 123.267C65.656 121.386 64.7959 119.087 64.821 117.181C73.3129 115.234 81.7631 106.95 86.0216 95.273C91.7748 79.4497 87.6749 63.4175 76.8199 59.4554Z" fill="#68E1FD"/>
<path d="M304.307 89.2881C303.73 86.2652 302.136 83.5316 299.79 81.5422C297.444 79.5529 294.488 78.428 291.415 78.3548C288.671 78.3086 285.971 79.0481 283.633 80.4863L283.249 80.5949C283.267 80.4534 283.267 80.3101 283.249 80.1686C282.698 73.7658 277.303 68.2907 270.724 68.4663C267.586 68.56 264.585 69.7758 262.265 71.8934C259.76 74.1586 258.508 77.5105 258.032 80.7788C258.032 80.946 257.982 81.1132 257.965 81.2887C255.469 81.0792 252.961 81.5077 250.675 82.5342C248.316 83.6681 246.385 85.5323 245.167 87.8507C243.949 90.1691 243.509 92.8185 243.912 95.4068C244.221 97.9301 245.154 100.336 246.627 102.407C248.099 104.479 250.065 106.149 252.345 107.268C254.201 108.152 256.207 108.677 258.257 108.814C259.827 115.501 266.866 120.767 273.488 122.523C281.838 124.721 293.962 122.748 297.21 113.537C297.705 112.009 297.986 110.42 298.045 108.814C298.158 107.407 298.013 105.991 297.619 104.635C297.426 104.051 297.168 103.49 296.851 102.963C299.428 101.829 301.558 99.8717 302.907 97.3976C304.256 94.9236 304.748 92.0719 304.307 89.2881Z" fill="#68E1FD"/>
<path d="M247.16 110.845C246.727 110.602 246.26 110.425 245.774 110.319C244.917 110.116 244.025 110.116 243.169 110.319C242.666 110.432 242.182 110.618 241.733 110.87C241.277 111.121 240.855 111.43 240.48 111.79C239.685 112.597 239.236 113.682 239.228 114.816C239.243 115.648 239.486 116.46 239.929 117.165C240.045 117.524 240.208 117.867 240.413 118.184C241.123 119.313 242.227 120.136 243.511 120.491C243.934 120.6 244.369 120.659 244.805 120.667C245.049 120.653 245.291 120.625 245.532 120.583C246.201 120.519 246.847 120.302 247.419 119.948C248.549 119.249 249.368 118.142 249.707 116.855C250 115.713 249.91 114.505 249.449 113.419C248.989 112.333 248.185 111.428 247.16 110.845Z" fill="#68E1FD"/>
<path d="M162.892 239.68C226.052 239.68 277.253 214.471 277.253 183.375C277.253 152.278 226.052 127.07 162.892 127.07C99.7316 127.07 48.5302 152.278 48.5302 183.375C48.5302 214.471 99.7316 239.68 162.892 239.68Z" fill="#464646"/>
<path d="M158.867 231.605L207.297 213.45L227.337 211.519L229.5 212.639L230.184 215.983L194.547 237.022C194.547 237.022 170.991 240.7 158.867 231.605Z" fill="url(#paint0_linear)"/>
<path d="M65.0715 210.884L118.57 184.194L133.508 190.798L135.671 191.918L137.516 197.05L90.3637 226.306C81.5115 221.892 73.0503 216.733 65.0715 210.884Z" fill="url(#paint1_linear)"/>
<path d="M233.566 189.878C233.349 189.602 224.206 176.889 223.964 176.972C223.722 177.056 221.141 192.386 221.141 192.386L229.491 198.463" fill="#FFDDB0"/>
<path d="M231.011 188.633C231.111 190.079 231.145 192.812 230.276 193.406C229.408 193.999 228.464 189.786 227.028 189.126C225.592 188.466 222.536 191.851 221.976 193.422C221.417 194.994 226.076 197.134 226.193 197.56L226.644 198.931C225.954 202.119 225.078 205.265 224.022 208.351C223.544 210.088 223.544 211.922 224.022 213.659C224.382 214.552 224.939 215.352 225.65 216C226.278 216.517 227.066 216.8 227.88 216.8C228.693 216.8 229.481 216.517 230.109 216C231.435 214.875 232.496 213.47 233.216 211.887C236.222 204.866 238.092 194.793 238.092 194.793L232.005 187.02C232.005 187.02 230.911 187.187 231.011 188.633Z" fill="#222222"/>
<path d="M224.49 214.52C224.49 214.52 227.262 216.509 229.717 213.015C232.172 209.521 236.656 192.954 236.656 192.954L238.117 194.818C238.117 194.818 235.386 206.203 234.56 208.451C233.733 210.7 229.55 221.683 224.49 214.52Z" fill="#66EAF6"/>
<path d="M212.883 194.668C212.691 195.554 222.586 199.833 222.586 199.833C222.586 199.833 229.333 185.205 227.98 174.949L214.286 163.556" fill="#57AF9E"/>
<path d="M212.658 211.051L214.896 196.365L206.195 199.232L203.189 213.467L204.458 217.42" fill="#FFDDB0"/>
<path d="M211.313 210.792C210.311 211.845 208.324 213.692 207.289 213.45C206.253 213.208 208.75 209.68 208.274 208.159C207.798 206.638 203.264 206.663 201.703 207.323C200.141 207.983 201.703 212.857 201.477 213.233L200.767 214.487C197.949 216.112 195.038 217.571 192.05 218.858C190.447 219.681 189.097 220.923 188.142 222.452C187.721 223.32 187.501 224.272 187.499 225.236C187.539 226.049 187.86 226.823 188.407 227.425C188.954 228.027 189.692 228.42 190.497 228.538C192.219 228.765 193.97 228.608 195.624 228.078C202.838 225.57 211.547 220.204 211.547 220.204L213.217 210.466C213.072 210.36 212.906 210.285 212.731 210.244C212.556 210.204 212.374 210.198 212.197 210.229C212.02 210.259 211.85 210.325 211.699 210.421C211.547 210.518 211.416 210.644 211.313 210.792Z" fill="#222222"/>
<path d="M187.783 223.347C187.783 223.347 188.167 226.741 192.409 226.214C196.651 225.687 211.94 217.855 211.94 217.855L211.539 220.196C211.539 220.196 201.235 225.821 199.064 226.724C196.893 227.627 185.879 231.915 187.783 223.347Z" fill="#66EAF6"/>
<path d="M198.688 159.26C198.688 159.26 199.406 194.593 201.519 204.105C201.519 204.105 204.959 207.699 216.315 204.682C216.315 204.682 233.199 158.407 220.081 106.984C206.963 55.5603 198.688 159.26 198.688 159.26Z" fill="url(#paint2_linear)"/>
<path d="M195.59 99.9289C195.59 99.9289 177.312 133.189 177.646 149.973C177.98 166.758 202.337 184.763 202.337 184.763L210.053 100.623" fill="url(#paint3_linear)"/>
<path d="M196.075 101.902C194.936 101.466 193.85 100.906 192.835 100.23C192.009 99.3868 191.387 98.3661 191.015 97.2457C190.94 97.065 190.812 96.9114 190.648 96.8054C190.484 96.6993 190.291 96.6459 190.096 96.6523L188.76 94.8718C188.688 94.773 188.597 94.6896 188.492 94.6264C188.388 94.5633 188.271 94.5217 188.151 94.504C187.975 94.2783 187.8 94.0443 187.641 93.7935C187.015 92.8323 185.495 93.7016 186.088 94.6963L186.297 95.039C186.175 95.1133 186.071 95.213 185.992 95.3313C185.913 95.4496 185.86 95.5838 185.838 95.7244C185.651 95.7766 185.489 95.8918 185.378 96.0504C185.26 96.07 185.147 96.1147 185.048 96.1817C184.949 96.2487 184.865 96.3363 184.802 96.4386C184.74 96.5409 184.7 96.6555 184.685 96.7745C184.671 96.8936 184.682 97.0144 184.719 97.1287L184.902 97.6887C184.765 97.7578 184.651 97.8662 184.575 98.0002C184.5 98.1341 184.465 98.2875 184.477 98.441C184.326 98.5022 184.202 98.6144 184.125 98.7581C184.049 98.9017 184.026 99.0676 184.059 99.2268C184.476 102.614 185.35 105.929 186.656 109.082C187.057 110.043 188.543 109.742 188.451 108.864C188.852 109.505 189.278 110.132 189.729 110.745C189.811 110.862 189.92 110.957 190.046 111.024C190.172 111.091 190.312 111.127 190.455 111.13C190.627 111.183 190.812 111.183 190.984 111.13C191.156 111.078 191.309 110.974 191.422 110.834C191.535 110.694 191.604 110.523 191.619 110.343C191.634 110.163 191.595 109.983 191.507 109.826L191.215 109.282C191.658 109.976 192.125 110.653 192.609 111.314C192.74 111.497 192.934 111.625 193.153 111.673C193.373 111.72 193.603 111.684 193.797 111.571C193.991 111.458 194.137 111.276 194.204 111.062C194.272 110.847 194.257 110.615 194.163 110.411L193.428 108.881C193.712 109.073 194.446 109.876 194.73 109.717C196.459 108.564 194.196 105.538 193.511 104.276L192.852 103.063C193.734 103.37 194.657 103.548 195.59 103.59C195.793 103.6 195.993 103.54 196.158 103.422C196.323 103.303 196.443 103.133 196.499 102.937C196.555 102.742 196.544 102.534 196.467 102.346C196.39 102.158 196.252 102.001 196.075 101.902Z" fill="#FFDDB0"/>
<path d="M188.877 109.098C188.359 107.672 187.881 106.231 187.441 104.777C187.422 104.708 187.377 104.65 187.315 104.615C187.253 104.579 187.18 104.57 187.111 104.589C187.042 104.608 186.984 104.653 186.949 104.715C186.914 104.777 186.904 104.85 186.923 104.919C187.363 106.374 187.842 107.814 188.359 109.241C188.476 109.567 188.994 109.424 188.877 109.098Z" fill="#603813"/>
<path d="M191.633 109.659L189.019 104.267C188.869 103.958 188.401 104.267 188.551 104.543L191.165 109.943C191.315 110.244 191.783 109.976 191.633 109.659Z" fill="#603813"/>
<path d="M194.229 109.065C193.044 107.17 191.947 105.22 190.939 103.214C190.781 102.905 190.322 103.214 190.472 103.49C191.479 105.49 192.576 107.441 193.762 109.341C193.945 109.625 194.413 109.358 194.229 109.065Z" fill="#603813"/>
<g opacity="0.1">
<path opacity="0.1" d="M304.307 89.2881C303.73 86.2652 302.136 83.5316 299.79 81.5422C297.444 79.5529 294.488 78.428 291.415 78.3548C288.671 78.3086 285.971 79.0481 283.633 80.4863L283.249 80.5949C283.267 80.4534 283.267 80.3101 283.249 80.1686C282.698 73.7658 277.303 68.2907 270.724 68.4663C267.586 68.56 264.585 69.7758 262.265 71.8934C259.76 74.1586 258.508 77.5105 258.032 80.7788C258.032 80.946 257.982 81.1132 257.965 81.2887C255.469 81.0792 252.961 81.5077 250.675 82.5342C248.316 83.6681 246.385 85.5323 245.167 87.8507C243.949 90.1691 243.509 92.8185 243.912 95.4068C244.221 97.9301 245.154 100.336 246.627 102.407C248.099 104.479 250.065 106.149 252.345 107.268C254.201 108.152 256.207 108.677 258.257 108.814C259.827 115.501 266.866 120.767 273.488 122.523C281.838 124.721 293.962 122.748 297.21 113.537C297.705 112.009 297.986 110.42 298.045 108.814C298.158 107.407 298.013 105.991 297.619 104.635C297.426 104.051 297.168 103.49 296.851 102.963C299.428 101.829 301.558 99.8717 302.907 97.3976C304.256 94.9236 304.748 92.0719 304.307 89.2881Z" fill="black"/>
<path opacity="0.1" d="M247.16 110.845C246.727 110.602 246.26 110.425 245.774 110.319C244.917 110.116 244.025 110.116 243.169 110.319C242.666 110.432 242.182 110.618 241.733 110.87C241.277 111.121 240.855 111.43 240.48 111.79C239.685 112.597 239.236 113.682 239.228 114.816C239.243 115.648 239.486 116.46 239.929 117.165C240.045 117.524 240.208 117.867 240.413 118.184C241.123 119.313 242.227 120.136 243.511 120.491C243.934 120.6 244.369 120.659 244.805 120.667C245.049 120.653 245.291 120.625 245.532 120.583C246.201 120.519 246.847 120.302 247.419 119.948C248.549 119.249 249.368 118.142 249.707 116.855C250 115.713 249.91 114.505 249.449 113.419C248.989 112.333 248.185 111.428 247.16 110.845Z" fill="black"/>
</g>
<path opacity="0.1" d="M76.8199 59.4554C65.9649 55.4933 52.5131 65.106 46.7599 80.9209C41.0068 96.7358 45.0899 112.768 55.9449 116.73C56.8093 117.042 57.7011 117.272 58.6086 117.415C60.8965 125.457 68.7789 123.267 68.7789 123.267C65.656 121.386 64.7959 119.087 64.821 117.181C73.3129 115.234 81.7631 106.95 86.0216 95.273C91.7748 79.4497 87.6749 63.4175 76.8199 59.4554Z" fill="black"/>
<path d="M104.726 90.9514L98.2294 107.385L105.46 108.171C105.46 108.171 109.243 94.9971 131.345 94.6795C153.448 94.3618 124.665 135.713 120.616 142.283C116.566 148.853 114.211 160.271 115.013 168.546L128.982 173.645C128.982 173.645 126.553 155.256 132.155 148.243C137.758 141.23 153.139 113.462 150.3 101.993C147.461 90.5251 136.5 92.9998 136.5 92.9998" fill="#46857E"/>
<path d="M128.982 173.645L142.025 168.195C142.025 168.195 142.142 162.854 141.616 154.194C141.09 145.535 158.316 120.492 161.071 108.221C163.827 95.95 145.591 73.7657 124.415 78.4299C100.2 83.7712 98.2043 107.385 98.2043 107.385L109.602 113.027C109.602 113.027 119.814 91.2022 134.36 94.4538C148.906 97.7054 147.536 115.451 147.536 115.451L132.155 148.234C132.155 148.234 125.801 156.852 128.982 173.645Z" fill="#5DF6BE"/>
<path d="M128.874 199.834C135.616 199.834 141.082 194.362 141.082 187.613C141.082 180.864 135.616 175.392 128.874 175.392C122.132 175.392 116.666 180.864 116.666 187.613C116.666 194.362 122.132 199.834 128.874 199.834Z" fill="#5DF6BE"/>
<path d="M124.642 186.276C124.985 181.845 127.874 178.034 131.589 175.71C129.707 175.281 127.75 175.305 125.878 175.779C124.007 176.254 122.275 177.167 120.824 178.442C119.373 179.717 118.245 181.318 117.532 183.114C116.82 184.91 116.543 186.85 116.724 188.774C116.906 190.698 117.54 192.551 118.576 194.182C119.612 195.813 121.019 197.175 122.683 198.156C124.346 199.136 126.219 199.708 128.146 199.824C130.073 199.94 132 199.597 133.769 198.822C128.659 196.925 124.208 191.993 124.642 186.276Z" fill="#46857E"/>
<path d="M90.8431 96.7486C96.6091 80.9328 92.4932 64.9001 81.65 60.9386C70.8068 56.9771 57.3423 66.5869 51.5763 82.4027C45.8103 98.2185 49.9261 114.251 60.7694 118.213C71.6126 122.174 85.077 112.564 90.8431 96.7486Z" fill="#68E1FD"/>
<path d="M71.1169 114.248C71.1169 114.248 66.5161 120.483 73.6219 124.746C73.6219 124.746 63.0174 127.722 62.8337 114.248" fill="#68E1FD"/>
<path d="M299.047 89.2881C298.47 86.2666 296.877 83.534 294.533 81.5448C292.189 79.5557 289.235 78.4299 286.163 78.3548C283.419 78.3086 280.719 79.0481 278.381 80.4863L277.997 80.5949C278.015 80.4534 278.015 80.3101 277.997 80.1686C277.445 73.7658 272.051 68.2907 265.472 68.4663C262.333 68.56 259.333 69.7758 257.013 71.8934C254.508 74.1586 253.255 77.5105 252.78 80.7788C252.78 80.946 252.729 81.1132 252.713 81.2887C250.214 81.0777 247.703 81.5063 245.415 82.5342C243.056 83.6681 241.124 85.5323 239.906 87.8507C238.688 90.1691 238.248 92.8185 238.651 95.4068C238.96 97.9301 239.894 100.336 241.366 102.407C242.839 104.479 244.804 106.149 247.085 107.268C248.94 108.152 250.946 108.677 252.997 108.814C254.566 115.501 261.605 120.767 268.227 122.523C276.577 124.721 288.701 122.748 291.949 113.537C292.444 112.009 292.725 110.42 292.784 108.814C292.897 107.407 292.753 105.991 292.359 104.635C292.165 104.051 291.908 103.49 291.59 102.963C294.168 101.829 296.297 99.8717 297.646 97.3976C298.995 94.9236 299.488 92.0719 299.047 89.2881Z" fill="#68E1FD"/>
<path d="M245.298 110.403C244.865 110.159 244.397 109.982 243.912 109.876C243.055 109.673 242.163 109.673 241.307 109.876C240.804 109.99 240.32 110.175 239.87 110.428C239.41 110.682 238.986 110.997 238.61 111.364C237.815 112.171 237.365 113.256 237.357 114.39C237.372 115.222 237.615 116.034 238.058 116.739C238.174 117.098 238.337 117.441 238.543 117.758C239.252 118.887 240.357 119.71 241.641 120.065C242.064 120.174 242.498 120.233 242.935 120.241C243.178 120.226 243.421 120.199 243.661 120.157C244.331 120.093 244.976 119.876 245.548 119.522C246.679 118.823 247.498 117.716 247.836 116.429C248.134 115.285 248.047 114.074 247.588 112.985C247.129 111.895 246.324 110.988 245.298 110.403Z" fill="#68E1FD"/>
<path d="M164.169 18.6058C164.169 18.6058 160.32 14.1338 159.26 13.9917C158.199 13.8496 118.62 25.6941 116.391 27.6166C114.161 29.5392 114.186 35.8835 115.013 39.971C115.84 44.0584 120.599 65.6326 121.576 66.4852C122.553 67.3378 125.5 68.0483 128.256 67.5467" fill="#C13127"/>
<path d="M164.737 61.0937L128.248 67.5718C126.702 67.8573 125.106 67.5167 123.811 66.6248C122.516 65.7329 121.628 64.3628 121.342 62.8156L116.474 35.0643C116.231 33.613 116.542 32.1231 117.347 30.8915C118.151 29.6599 119.39 28.7771 120.816 28.419L159.093 18.4887C159.919 18.2666 160.783 18.2261 161.627 18.3701C162.47 18.514 163.272 18.8389 163.978 19.3225C164.684 19.8062 165.277 20.437 165.717 21.1718C166.156 21.9066 166.432 22.7279 166.524 23.5793L169.597 54.7911C169.731 56.2616 169.304 57.7285 168.403 58.8974C167.502 60.0663 166.192 60.8508 164.737 61.0937Z" fill="#EA5343"/>
<path d="M169.597 54.7744C169.597 54.7744 170.574 69.185 169.597 69.6448C168.62 70.1045 160.128 61.2441 160.128 61.2441" fill="#EA5343"/>
<path d="M203.74 63.4676C203.74 63.4676 193.887 62.9744 186.063 65.4486C178.239 67.9228 169.029 74.5513 170.023 81.3304C171.016 88.1094 180.919 102.487 180.919 102.487L192.96 95.9081C192.96 95.9081 187.115 86.6382 188.334 85.0417C189.553 83.4451 192.267 83.3699 192.267 83.3699L194.555 105.604C194.555 105.604 208.257 108.747 218.912 105.604L217.492 97.5548C219.484 97.6169 221.429 96.9512 222.966 95.6821C224.502 94.4131 225.525 92.6275 225.842 90.6588C227.295 83.3699 222.36 64.4121 203.74 63.4676Z" fill="#222222"/>
<path d="M197.511 49.5753C197.202 49.9264 197.411 51.1802 197.419 51.5898C197.419 53.0025 197.553 54.4068 197.703 55.7692C198.054 59.0626 198.688 62.6486 201.995 64.4123C206.086 66.5939 210.044 63.7603 211.689 60.2329C212.341 58.8118 212.616 51.4059 211.03 50.0351C209.443 48.6642 203.197 43.0973 197.511 49.5753Z" fill="#FFDDB0"/>
<path d="M197.244 51.4644C197.043 51.7319 194.254 51.3056 192.902 48.8816C191.549 46.4575 194.43 41.1747 197.912 41.2416C200.121 41.3185 202.213 42.2575 203.74 43.8579C203.74 43.8579 206.863 42.3282 209.059 43.5486C210.367 44.2761 211.417 45.3917 212.065 46.7417C212.065 46.7417 214.845 46.9758 215.555 49.4332C216.265 51.8907 213.242 60.0573 212.808 60.3666C212.374 60.6759 211.522 60.4251 211.222 59.397C210.921 58.3688 211.171 54.8247 210.236 54.6993C209.301 54.5739 209.685 55.9364 207.69 55.7274C205.694 55.5185 205.402 52.7517 203.924 51.9158C202.446 51.0799 199.34 48.589 197.244 51.4644Z" fill="#FFC50C"/>
<path d="M208.934 64.3787C208.399 63.3087 207.08 63.7183 206.245 64.1446C205.202 64.7437 204.198 65.4082 203.239 66.134C201.929 65.1983 200.572 64.3307 199.173 63.5344C198.371 63.083 197.555 62.654 196.726 62.2472C196.058 61.9212 195.273 61.4949 194.672 62.1803C193.62 63.384 195.44 64.4706 196.576 65.131C196.131 65.2644 195.754 65.5636 195.524 65.9668C195.386 66.2134 195.317 66.4926 195.324 66.775C195.332 67.0575 195.415 67.3327 195.565 67.5717L195.649 67.6888C195.385 67.7829 195.143 67.929 194.936 68.1185C194.73 68.3081 194.563 68.5371 194.446 68.7921C194.319 69.064 194.275 69.3672 194.318 69.6643C194.361 69.9613 194.49 70.2393 194.689 70.4639C194.759 70.5416 194.837 70.6116 194.922 70.6729C194.84 70.7248 194.762 70.7836 194.689 70.8484C194.48 71.0355 194.322 71.2721 194.228 71.5365C194.135 71.8009 194.109 72.0845 194.154 72.3613C194.235 72.7786 194.445 73.16 194.753 73.4522C195.062 73.7445 195.454 73.933 195.874 73.9913C195.874 74.4093 196.709 74.9944 197.194 75.1281C197.434 75.1982 197.68 75.2458 197.928 75.2702C198.023 75.7327 198.112 76.1953 198.196 76.6578C199.189 76.2452 200.204 75.8853 201.235 75.5795C201.32 75.5583 201.409 75.5583 201.494 75.5795L202.446 75.1448C202.529 75.0995 202.622 75.0757 202.717 75.0757C202.812 75.0757 202.905 75.0995 202.989 75.1448C203.673 74.66 204.35 74.1668 205.001 73.6402C204.945 73.2112 204.898 72.7793 204.859 72.3446C204.852 72.271 204.838 72.1982 204.817 72.1273C204.817 70.9794 204.817 69.8286 204.817 68.6751L204.976 68.5748C205.983 68.1953 206.91 67.628 207.706 66.903C208.383 66.3096 209.41 65.3399 208.934 64.3787Z" fill="#FFDDB0"/>
<path d="M199.44 66.7191C198.505 66.1619 197.561 65.6046 196.609 65.0474C196.547 65.0108 196.473 65.0004 196.403 65.0184C196.334 65.0364 196.274 65.0814 196.238 65.1435C196.201 65.2056 196.191 65.2796 196.209 65.3494C196.227 65.4192 196.272 65.4789 196.334 65.5155C197.28 66.0727 198.223 66.63 199.164 67.1872C199.226 67.2238 199.3 67.2342 199.37 67.2162C199.44 67.1982 199.499 67.1532 199.536 67.0911C199.572 67.029 199.583 66.955 199.565 66.8852C199.547 66.8155 199.502 66.7557 199.44 66.7191Z" fill="#603813"/>
<path d="M197.06 68.1402C196.681 68.0018 196.326 67.8043 196.008 67.5551C195.741 67.3461 195.357 67.7222 195.624 67.9396C196.011 68.2461 196.446 68.4888 196.91 68.6584C197.219 68.7838 197.361 68.2572 197.06 68.1402Z" fill="#603813"/>
<path d="M196.559 71.0491C196.033 70.8776 195.524 70.6565 195.039 70.3888C194.739 70.2216 194.463 70.6897 194.764 70.8569C195.296 71.1465 195.856 71.3844 196.434 71.5674C196.743 71.6677 196.885 71.1494 196.559 71.0491Z" fill="#603813"/>
<path d="M220.899 85.7858C214.676 83.6455 209.385 79.4127 205.928 73.8076C205.888 73.7376 205.835 73.6762 205.771 73.6272C205.707 73.5782 205.634 73.5425 205.556 73.5222C205.478 73.5019 205.397 73.4975 205.318 73.5092C205.238 73.5209 205.161 73.5485 205.093 73.5903C205.07 73.5227 205.033 73.4608 204.985 73.4085C204.937 73.3562 204.878 73.3149 204.812 73.2872C204.747 73.2595 204.676 73.2462 204.605 73.248C204.534 73.2498 204.464 73.2667 204.4 73.2977C200.67 74.8104 197.044 76.5667 193.545 78.5554C193.469 78.5966 193.403 78.6538 193.352 78.723C193.301 78.7921 193.265 78.8716 193.248 78.9559C193.23 79.0402 193.232 79.1273 193.251 79.2111C193.271 79.295 193.308 79.3736 193.361 79.4415C194.189 84.6593 196.862 89.4057 200.893 92.8162C204.924 96.2268 210.044 98.0746 215.321 98.0231C215.488 98.0231 215.647 97.9571 215.764 97.8395C215.882 97.7219 215.948 97.5625 215.948 97.3962C215.948 97.2299 215.882 97.0705 215.764 96.9529C215.647 96.8354 215.488 96.7693 215.321 96.7693C210.369 96.8202 205.561 95.0966 201.766 91.9097C197.972 88.7228 195.441 84.2828 194.63 79.3913C197.901 77.5528 201.283 75.9224 204.759 74.5098L204.867 74.4512C208.499 80.3245 214.053 84.7556 220.582 86.9895C221.333 87.257 221.659 86.0449 220.899 85.7858Z" fill="#676767"/>
<path d="M200.4 139.692C200.4 134.86 200.456 130.029 200.567 125.198C200.545 124.974 200.442 124.767 200.276 124.616C200.11 124.465 199.894 124.382 199.669 124.382C199.445 124.382 199.229 124.465 199.063 124.616C198.897 124.767 198.793 124.974 198.772 125.198C198.477 142.316 198.543 159.438 198.972 176.563C199.095 181.394 199.245 186.225 199.423 191.057C199.465 192.21 201.26 192.219 201.218 191.057C200.567 173.943 200.294 156.822 200.4 139.692Z" fill="#222222"/>
<path d="M209.168 64.1447C207.907 62.1219 204.158 65.106 203.005 65.9753C202.646 66.2512 203.147 66.7527 203.506 66.4768C204.082 66.0255 204.717 65.641 205.318 65.2565C206.095 64.7215 206.988 63.7519 208.057 64.0193C209.727 64.4289 208.466 66.1676 207.69 66.7527C207.372 66.9858 207.034 67.19 206.679 67.3629C206.088 67.7574 205.451 68.0801 204.784 68.3241C204.366 68.4913 204.55 69.16 204.967 69.0012C206.412 68.4662 210.478 66.2094 209.168 64.1447Z" fill="#42210B"/>
<path d="M203.431 66.0422C201.594 64.7383 198.304 62.6987 196.367 61.5452C196.075 61.378 195.624 61.7291 195.916 61.9046C197.853 63.0498 201.335 65.2481 203.172 66.5103C203.439 66.7026 203.74 66.2345 203.431 66.0422Z" fill="#42210B"/>
<defs>
<linearGradient id="paint0_linear" x1="226.018" y1="208.802" x2="169.831" y2="237.809" gradientUnits="userSpaceOnUse">
<stop stop-color="#2C2C2C"/>
<stop offset="0.99" stop-color="#494949"/>
</linearGradient>
<linearGradient id="paint1_linear" x1="11619.3" y1="9721.67" x2="8170.87" y2="12787.5" gradientUnits="userSpaceOnUse">
<stop stop-color="#303030"/>
<stop offset="0.99" stop-color="#494949"/>
</linearGradient>
<linearGradient id="paint2_linear" x1="201.357" y1="92.6733" x2="201.357" y2="205.888" gradientUnits="userSpaceOnUse">
<stop stop-color="#39706D"/>
<stop offset="1" stop-color="#58B19F"/>
</linearGradient>
<linearGradient id="paint3_linear" x1="201.357" y1="92.6733" x2="201.357" y2="205.888" gradientUnits="userSpaceOnUse">
<stop stop-color="#39706D"/>
<stop offset="1" stop-color="#58B19F"/>
</linearGradient>
</defs>
</svg>
