<svg width="164" height="32" viewBox="0 0 164 32" fill="none" xmlns="http://www.w3.org/2000/svg">
<path d="M28.6612 6.21711C29.4212 7.1998 30.0647 8.26741 30.5784 9.39849L16.0039 20.1426L9.91281 16.3242V11.7305L16.0039 15.5489L28.6612 6.21711Z" fill="#21A038"/>
<path d="M3.6964 16C3.6964 15.7939 3.70142 15.5891 3.71148 15.3855L0.0201038 15.2046C0.00753963 15.4685 4.46085e-06 15.7349 4.46085e-06 16.0037C-0.00156612 18.1044 0.411605 20.1846 1.21583 22.1251C2.02004 24.0657 3.19947 25.8283 4.68646 27.312L7.30484 24.6948C6.16021 23.5547 5.25217 22.1996 4.63291 20.7075C4.01365 19.2154 3.69539 17.6155 3.6964 16Z" fill="#21A038"/>
<path d="M16.0005 3.69559C16.2065 3.69559 16.4113 3.70313 16.6148 3.71318L16.7995 0.0204107C16.5349 0.00784598 16.2685 0.00156438 16.0005 0.00156438C13.8989 -0.000998513 11.8177 0.411593 9.8761 1.21565C7.93449 2.0197 6.17084 3.19938 4.6864 4.68696L7.30478 7.30544C8.44484 6.16039 9.79999 5.25199 11.2923 4.63248C12.7847 4.01298 14.3847 3.69457 16.0005 3.69559Z" fill="#21A038"/>
<path d="M16.0005 28.3047C15.7945 28.3047 15.5897 28.3047 15.3849 28.2883L15.2002 31.9798C15.4657 31.9932 15.7325 32 16.0005 32C18.1012 32.0021 20.1815 31.5893 22.122 30.785C24.0626 29.9807 25.8251 28.8009 27.3084 27.3133L24.6951 24.6961C23.5548 25.8406 22.1998 26.7484 20.7077 27.3677C19.2157 27.987 17.616 28.3054 16.0005 28.3047Z" fill="#21A038"/>
<path d="M22.9361 5.84262L26.047 3.54956C23.2036 1.24702 19.6543 -0.00639159 15.9956 2.45106e-05V3.69531C18.4731 3.69223 20.8931 4.44099 22.9361 5.84262Z" fill="#21A038"/>
<path d="M32 16C32.0019 15.0387 31.9179 14.0791 31.7486 13.1327L28.3048 15.6708C28.3048 15.7802 28.3048 15.8895 28.3048 16C28.3057 17.7192 27.9453 19.4194 27.2471 20.9904C26.5489 22.5614 25.5283 23.9682 24.2516 25.1195L26.7356 27.8649C28.3953 26.3664 29.7217 24.5359 30.6286 22.492C31.5356 20.448 32.0027 18.2362 32 16Z" fill="#21A038"/>
<path d="M16.0005 28.3047C14.2813 28.3053 12.5811 27.9447 11.01 27.2465C9.43889 26.5483 8.03193 25.5278 6.88023 24.2513L4.13621 26.7341C5.63444 28.3942 7.46486 29.7208 9.50877 30.628C11.5527 31.5351 13.7643 32.0026 16.0005 32V28.3047Z" fill="#21A038"/>
<path d="M7.74963 6.88046L5.26693 4.13507C3.60666 5.63325 2.27982 7.4637 1.37247 9.50769C0.465121 11.5517 -0.00247374 13.7636 9.84174e-06 15.9999L3.6964 16C3.69563 14.2809 4.05607 12.5806 4.75429 11.0096C5.45253 9.43863 6.47301 8.03186 7.74963 6.88046Z" fill="#21A038"/>
<path d="M44.886 24.7489C43.6686 24.7489 42.488 24.5691 41.344 24.2096C40.2146 23.8337 39.3053 23.3515 38.616 22.7632L39.826 19.7723C40.486 20.3117 41.2706 20.7448 42.18 21.0716C43.0893 21.3985 43.9986 21.5619 44.908 21.5619C45.92 21.5619 46.668 21.3985 47.152 21.0716C47.636 20.7284 47.878 20.279 47.878 19.7233C47.878 19.3147 47.7313 18.9797 47.438 18.7182C47.1593 18.4404 46.7926 18.2197 46.338 18.0563C45.898 17.8929 45.2966 17.7131 44.534 17.517C43.3606 17.2064 42.4 16.8959 41.652 16.5854C40.904 16.2749 40.2586 15.7764 39.716 15.09C39.188 14.4035 38.924 13.4883 38.924 12.3443C38.924 11.3473 39.166 10.4485 39.65 9.64763C40.134 8.83046 40.86 8.18489 41.828 7.71094C42.8106 7.23698 44.006 7 45.414 7C46.3966 7 47.3573 7.13075 48.296 7.39224C49.2346 7.65373 50.056 8.02963 50.76 8.51993L49.66 11.5353C48.2373 10.6364 46.8146 10.187 45.392 10.187C44.3946 10.187 43.654 10.3667 43.17 10.7263C42.7006 11.0858 42.466 11.5598 42.466 12.1482C42.466 12.7365 42.7373 13.1778 43.28 13.472C43.8373 13.7498 44.6806 14.0277 45.81 14.3055C46.9833 14.616 47.944 14.9265 48.692 15.2371C49.44 15.5476 50.078 16.0379 50.606 16.708C51.1486 17.378 51.42 18.2851 51.42 19.4291C51.42 20.4097 51.1706 21.3086 50.672 22.1258C50.188 22.9266 49.4546 23.564 48.472 24.038C47.4893 24.5119 46.294 24.7489 44.886 24.7489Z" fill="#21A038"/>
<path d="M65.1633 15.5312C66.0433 15.8418 66.7326 16.3648 67.2313 17.1002C67.7299 17.8193 67.9793 18.71 67.9793 19.7723C67.9793 21.2759 67.4513 22.4363 66.3953 23.2535C65.3539 24.0543 63.8286 24.4547 61.8193 24.4547H53.8553V7.29418H61.3793C63.2566 7.29418 64.6939 7.69459 65.6913 8.49542C66.7033 9.29624 67.2093 10.3831 67.2093 11.7559C67.2093 12.5894 67.0259 13.3331 66.6593 13.9868C66.3073 14.6405 65.8086 15.1553 65.1633 15.5312ZM57.3973 10.285V14.33H60.9393C61.8193 14.33 62.4866 14.1584 62.9413 13.8152C63.3959 13.472 63.6233 12.9653 63.6233 12.2953C63.6233 11.6252 63.3959 11.1267 62.9413 10.7998C62.4866 10.4566 61.8193 10.285 60.9393 10.285H57.3973ZM61.5553 21.4639C62.4939 21.4639 63.1979 21.2923 63.6673 20.9491C64.1513 20.6059 64.3933 20.0747 64.3933 19.3556C64.3933 17.9337 63.4473 17.2228 61.5553 17.2228H57.3973V21.4639H61.5553Z" fill="#21A038"/>
<path d="M82.6015 21.2678V24.4547H70.6775V7.29418H82.3155L79.3155 10.4811H74.2195V14.2074H81.3695V17.2963H74.2195V21.2678H82.6015Z" fill="#21A038"/>
<path d="M95.2493 24.4547L92.2793 19.6743H89.0013V24.4547H85.4373V7.29418H92.1033C93.4673 7.29418 94.648 7.5475 95.6453 8.05415C96.6573 8.56079 97.4346 9.2799 97.9773 10.2115C98.52 11.143 98.7913 12.2462 98.7913 13.521C98.7913 14.7958 98.5126 15.899 97.9553 16.8305C97.4126 17.7458 96.6353 18.4485 95.6233 18.9388L99.0773 24.4547H95.2493ZM95.1833 13.521C95.1833 12.5567 94.9046 11.8213 94.3473 11.3147C93.79 10.7917 92.976 10.5302 91.9053 10.5302H89.0013V16.5118H91.9053C92.976 16.5118 93.79 16.2503 94.3473 15.7274C94.9046 15.2044 95.1833 14.4689 95.1833 13.521Z" fill="#21A038"/>
<path d="M115.215 24.7489C113.646 24.7489 112.223 24.373 110.947 23.6212C109.686 22.8531 108.689 21.7989 107.955 20.4588C107.237 19.1023 106.877 17.5742 106.877 15.8745C106.877 14.1747 107.237 12.6548 107.955 11.3147C108.689 9.95815 109.686 8.904 110.947 8.15221C112.223 7.38407 113.653 7 115.237 7C116.572 7 117.775 7.26149 118.845 7.78448C119.931 8.30747 120.84 9.05927 121.574 10.0399L119.285 12.3933C118.244 11.0532 116.953 10.3831 115.413 10.3831C114.46 10.3831 113.609 10.6201 112.861 11.094C112.113 11.5516 111.527 12.1972 111.102 13.0307C110.691 13.8642 110.485 14.8121 110.485 15.8745C110.485 16.9368 110.691 17.8847 111.102 18.7182C111.527 19.5517 112.113 20.2054 112.861 20.6794C113.609 21.137 114.46 21.3658 115.413 21.3658C116.953 21.3658 118.244 20.6876 119.285 19.3311L121.574 21.6845C120.84 22.6815 119.931 23.4414 118.845 23.9644C117.76 24.4874 116.55 24.7489 115.215 24.7489Z" fill="#21A038"/>
<path d="M131.116 24.7489C129.517 24.7489 128.073 24.3648 126.782 23.5967C125.506 22.8286 124.501 21.7744 123.768 20.4343C123.049 19.0778 122.69 17.5578 122.69 15.8745C122.69 14.1911 123.049 12.6793 123.768 11.3392C124.501 9.98267 125.506 8.92035 126.782 8.15221C128.073 7.38407 129.517 7 131.116 7C132.715 7 134.152 7.38407 135.428 8.15221C136.704 8.92035 137.709 9.98267 138.442 11.3392C139.175 12.6793 139.542 14.1911 139.542 15.8745C139.542 17.5578 139.175 19.0778 138.442 20.4343C137.709 21.7744 136.704 22.8286 135.428 23.5967C134.152 24.3648 132.715 24.7489 131.116 24.7489ZM131.116 21.3658C132.025 21.3658 132.847 21.137 133.58 20.6794C134.313 20.2054 134.885 19.5517 135.296 18.7182C135.721 17.8847 135.934 16.9368 135.934 15.8745C135.934 14.8121 135.721 13.8642 135.296 13.0307C134.885 12.1972 134.313 11.5516 133.58 11.094C132.847 10.6201 132.025 10.3831 131.116 10.3831C130.207 10.3831 129.385 10.6201 128.652 11.094C127.919 11.5516 127.339 12.1972 126.914 13.0307C126.503 13.8642 126.298 14.8121 126.298 15.8745C126.298 16.9368 126.503 17.8847 126.914 18.7182C127.339 19.5517 127.919 20.2054 128.652 20.6794C129.385 21.137 130.207 21.3658 131.116 21.3658Z" fill="#21A038"/>
<path d="M142.22 7.29418H145.785V24.4547H142.22V7.29418Z" fill="#21A038"/>
<path d="M163.563 7.29418V24.4547H160.637L152.959 14.0358V24.4547H149.439V7.29418H152.387L160.043 17.7131V7.29418H163.563Z" fill="#21A038"/>
</svg>
