<svg width="32" height="32" viewBox="0 0 32 32" fill="none" xmlns="http://www.w3.org/2000/svg">
<path d="M28.6612 6.21711C29.4212 7.1998 30.0647 8.26741 30.5784 9.39849L16.0039 20.1426L9.91281 16.3242V11.7305L16.0039 15.5489L28.6612 6.21711Z" fill="#21A038"/>
<path d="M3.6964 16C3.6964 15.7939 3.70142 15.5891 3.71148 15.3855L0.0201038 15.2046C0.00753963 15.4685 4.46085e-06 15.7349 4.46085e-06 16.0037C-0.00156612 18.1044 0.411605 20.1846 1.21583 22.1251C2.02004 24.0657 3.19947 25.8283 4.68646 27.312L7.30484 24.6948C6.16021 23.5547 5.25217 22.1996 4.63291 20.7075C4.01365 19.2154 3.69539 17.6155 3.6964 16Z" fill="#21A038"/>
<path d="M16.0005 3.69559C16.2065 3.69559 16.4113 3.70313 16.6148 3.71318L16.7995 0.0204107C16.5349 0.00784598 16.2685 0.00156438 16.0005 0.00156438C13.8989 -0.000998513 11.8177 0.411593 9.8761 1.21565C7.93449 2.0197 6.17084 3.19938 4.6864 4.68696L7.30478 7.30544C8.44484 6.16039 9.79999 5.25199 11.2923 4.63248C12.7847 4.01298 14.3847 3.69457 16.0005 3.69559Z" fill="#21A038"/>
<path d="M16.0005 28.3047C15.7945 28.3047 15.5897 28.3047 15.3849 28.2883L15.2002 31.9798C15.4657 31.9932 15.7325 32 16.0005 32C18.1012 32.0021 20.1815 31.5893 22.122 30.785C24.0626 29.9807 25.8251 28.8009 27.3084 27.3133L24.6951 24.6961C23.5548 25.8406 22.1998 26.7484 20.7077 27.3677C19.2157 27.987 17.616 28.3054 16.0005 28.3047Z" fill="#21A038"/>
<path d="M22.9361 5.84262L26.047 3.54956C23.2036 1.24702 19.6543 -0.00639159 15.9956 2.45106e-05V3.69531C18.4731 3.69223 20.8931 4.44099 22.9361 5.84262Z" fill="#21A038"/>
<path d="M32 16C32.0019 15.0387 31.9179 14.0791 31.7486 13.1327L28.3048 15.6708C28.3048 15.7802 28.3048 15.8895 28.3048 16C28.3057 17.7192 27.9453 19.4194 27.2471 20.9904C26.5489 22.5614 25.5283 23.9682 24.2516 25.1195L26.7356 27.8649C28.3953 26.3664 29.7217 24.5359 30.6286 22.492C31.5356 20.448 32.0027 18.2362 32 16Z" fill="#21A038"/>
<path d="M16.0005 28.3047C14.2813 28.3053 12.5811 27.9447 11.01 27.2465C9.43889 26.5483 8.03193 25.5278 6.88023 24.2513L4.13621 26.7341C5.63444 28.3942 7.46486 29.7208 9.50877 30.628C11.5527 31.5351 13.7643 32.0026 16.0005 32V28.3047Z" fill="#21A038"/>
<path d="M7.74963 6.88046L5.26693 4.13507C3.60666 5.63325 2.27982 7.4637 1.37247 9.50769C0.465121 11.5517 -0.00247374 13.7636 9.84174e-06 15.9999L3.6964 16C3.69563 14.2809 4.05607 12.5806 4.75429 11.0096C5.45253 9.43863 6.47301 8.03186 7.74963 6.88046Z" fill="#21A038"/>
</svg>
